<?xml version="1.0" encoding="utf-8"?>
<!-- Generator: Adobe Illustrator 15.0.0, SVG Export Plug-In . SVG Version: 6.00 Build 0)  -->
<!DOCTYPE svg PUBLIC "-//W3C//DTD SVG 1.1//EN" "http://www.w3.org/Graphics/SVG/1.1/DTD/svg11.dtd">
<svg version="1.1" id="Layer_1" xmlns="http://www.w3.org/2000/svg" xmlns:xlink="http://www.w3.org/1999/xlink" x="0px" y="0px"
	 width="1683.78px" height="2383.94px" viewBox="0 0 1683.78 2383.94" enable-background="new 0 0 1683.78 2383.94"
	 xml:space="preserve">
<g>
	<g>
		<g>
			
				<line fill="none" stroke="#000000" stroke-width="2.835" stroke-miterlimit="10" x1="484.936" y1="981.244" x2="484.936" y2="1925.343"/>
			<g>
				<path d="M470.672,999.422c0,0.468,0.232,0.926,0.656,1.197c0.659,0.421,1.537,0.226,1.958-0.435l11.65-18.293l11.65,18.293
					c0.421,0.66,1.299,0.855,1.958,0.435c0.659-0.42,0.85-1.302,0.435-1.958l-12.846-20.17c-0.26-0.408-0.711-0.656-1.196-0.656
					s-0.936,0.248-1.196,0.656l-12.846,20.17C470.744,998.897,470.672,999.162,470.672,999.422
					C470.672,999.89,470.672,999.162,470.672,999.422z"/>
			</g>
			<g>
				<path d="M470.672,1907.165c0-0.468,0.232-0.926,0.656-1.197c0.659-0.421,1.537-0.226,1.958,0.435l11.65,18.294l11.65-18.294
					c0.421-0.66,1.299-0.855,1.958-0.435c0.659,0.421,0.85,1.303,0.435,1.958l-12.846,20.17c-0.26,0.408-0.711,0.656-1.196,0.656
					s-0.936-0.248-1.196-0.656l-12.846-20.17C470.744,1907.69,470.672,1907.425,470.672,1907.165
					C470.672,1906.697,470.672,1907.425,470.672,1907.165z"/>
			</g>
		</g>
	</g>
	<text transform="matrix(-6.123234e-17 -1 1 -6.123234e-17 470.7617 1889.9438)"><tspan x="0" y="0" font-family="'Calibri'" font-size="24">B</tspan><tspan x="12.84" y="0" font-family="'Calibri'" font-size="24">A</tspan><tspan x="26.559" y="0" font-family="'Calibri'" font-size="24">CK BODICE B</tspan><tspan x="150.004" y="0" font-family="'Calibri'" font-size="24">L</tspan><tspan x="159.589" y="0" font-family="'Calibri'" font-size="24">OCK</tspan></text>
	
		<text transform="matrix(-6.123234e-17 -1 1 -6.123234e-17 514.0107 1122.5195)" fill="#9A9899" font-family="'Calibri'" font-size="24">BCSizing ©</text>
	<text transform="matrix(1.0506 0 0 1 68.874 516.2437)" fill="#010101" font-family="'Calibri'" font-size="24">XB</text>
	<text transform="matrix(1.0506 0 0 1 71.1938 1112.6675)" fill="#010101" font-family="'Calibri'" font-size="24">UB</text>
	<text transform="matrix(1.0506 0 0 1 71.1938 1370.6675)" fill="#010101" font-family="'Calibri'" font-size="24">WL</text>
	<text transform="matrix(1.0506 0 0 1 71.1938 1951.4194)" fill="#010101" font-family="'Calibri'" font-size="24">HL</text>
	<text transform="matrix(1 0 0 1 71.2046 914.603)" font-family="'Calibri'" font-size="24">BL</text>
	
		<line fill="none" stroke="#000000" stroke-width="0.709" stroke-miterlimit="10" x1="59.741" y1="1376.279" x2="644.814" y2="1376.279"/>
	
		<line fill="none" stroke="#000000" stroke-width="0.709" stroke-miterlimit="10" x1="59.743" y1="525.804" x2="579.204" y2="525.804"/>
	<path fill="none" stroke="#000000" stroke-width="0.709" stroke-miterlimit="10" d="M594.217,335.126
		c-7.293,40.662-15.424,190.677-15.424,190.677"/>
	
		<line fill="none" stroke="#000000" stroke-width="0.709" stroke-miterlimit="10" x1="644.816" y1="1376.383" x2="660.887" y2="868.649"/>
	
		<line fill="none" stroke="#000000" stroke-width="0.709" stroke-miterlimit="10" x1="286.054" y1="1376.451" x2="327.554" y2="925.46"/>
	
		<line fill="none" stroke="#000000" stroke-width="0.709" stroke-miterlimit="10" x1="327.554" y1="925.46" x2="369.887" y2="1376.369"/>
	
		<line fill="none" stroke="#000000" stroke-width="0.709" stroke-miterlimit="10" x1="59.735" y1="925.46" x2="659.309" y2="925.46"/>
	<path fill="none" stroke="#000000" stroke-width="0.709" stroke-miterlimit="10" d="M264.741,211.233
		c-13.43,40.5-204.998,36.971-204.998,36.971"/>
	<path fill="none" stroke="#000000" stroke-width="0.709" stroke-miterlimit="10" d="M578.754,525.654
		c0,0-19.707,349.027,82.133,343.125"/>
	
		<line fill="none" stroke="#000000" stroke-width="0.709" stroke-miterlimit="10" x1="60.024" y1="1963.064" x2="728.54" y2="1963.064"/>
	<path fill="none" stroke="#000000" stroke-width="0.709" stroke-miterlimit="10" d="M644.816,1376.383
		c74.637,256.142,80.08,449.079,83.892,586.681"/>
	
		<line fill="none" stroke="#000000" stroke-width="0.709" stroke-miterlimit="10" x1="327.554" y1="925.46" x2="327.554" y2="1963.064"/>
	
		<line fill="none" stroke="#000000" stroke-width="0.709" stroke-miterlimit="10" x1="369.887" y1="1376.369" x2="327.554" y2="1774.007"/>
	
		<line fill="none" stroke="#000000" stroke-width="0.709" stroke-miterlimit="10" x1="327.554" y1="1774.007" x2="286.054" y2="1376.45"/>
	
		<line fill="none" stroke="#000000" stroke-width="0.709" stroke-miterlimit="10" x1="59.735" y1="247.137" x2="59.735" y2="1963.064"/>
	
		<line fill="none" stroke="#000000" stroke-width="0.709" stroke-miterlimit="10" x1="59.735" y1="1124.439" x2="651.878" y2="1124.439"/>
	
		<line fill="none" stroke="#000000" stroke-width="0.709" stroke-miterlimit="10" x1="264.741" y1="211.233" x2="594.583" y2="335.449"/>
	<text transform="matrix(1 0 0 1 71.2046 678.188)" font-family="'Calibri'" font-size="36">C</text>
	<text transform="matrix(1 0 0 1 71.2046 721.3882)" font-family="'Calibri'" font-size="36">B</text>
	<text transform="matrix(-6.123234e-17 -1 1 -6.123234e-17 470.7622 1337.4224)" font-family="'Calibri'" font-size="24">MRUK10D - MRUS6D - MREU36D</text>
</g>
<g>
	<text transform="matrix(1.0506 0 0 1 1499.751 887.9966)" fill="#010101" font-family="'Calibri'" font-size="24">BL</text>
	<text transform="matrix(1.0506 0 0 1 1493.6748 1367.4927)" fill="#010101" font-family="'Calibri'" font-size="24">WL</text>
	<text transform="matrix(1.0506 0 0 1 1499.1211 474.5728)" fill="#010101" font-family="'Calibri'" font-size="24">XF</text>
	<text transform="matrix(1 0 0 1.0358 1499.752 1951.1948)" fill="#010101" font-family="'Calibri'" font-size="23.1713">HL</text>
	<text transform="matrix(1.0506 0 0 1 1493.6855 1115.1196)" fill="#010101" font-family="'Calibri'" font-size="24">UB</text>
	
		<line fill="none" stroke="#000000" stroke-width="0.709" stroke-miterlimit="10" x1="1235.726" y1="1962.606" x2="1235.726" y2="896.424"/>
	
		<line fill="none" stroke="#000000" stroke-width="0.709" stroke-miterlimit="10" x1="1531.853" y1="896.426" x2="1235.726" y2="896.425"/>
	
		<line fill="none" stroke="#000000" stroke-width="0.709" stroke-miterlimit="10" x1="1531.325" y1="482.55" x2="1191.276" y2="482.549"/>
	
		<line fill="none" stroke="#000000" stroke-width="0.709" stroke-miterlimit="10" x1="947.282" y1="1375.879" x2="776.378" y2="896.569"/>
	
		<line fill="none" stroke="#000000" stroke-width="0.709" stroke-miterlimit="10" x1="795.093" y1="949.059" x2="1235.726" y2="896.425"/>
	
		<ellipse fill="none" stroke="#000000" stroke-width="0.283" stroke-miterlimit="10" stroke-dasharray="0.567,0.567" cx="1235.245" cy="895.118" rx="237.812" ry="238.485"/>
	<path fill="none" stroke="#000000" stroke-width="0.709" stroke-miterlimit="10" d="M900.622,579.773
		c109.467,249.355-124.244,317.156-124.244,317.156"/>
	
		<line fill="none" stroke="#000000" stroke-width="0.709" stroke-miterlimit="10" x1="1278.005" y1="1376" x2="1235.726" y2="896.425"/>
	
		<line fill="none" stroke="#000000" stroke-width="0.709" stroke-miterlimit="10" x1="1235.726" y1="896.425" x2="1193.388" y2="1376.079"/>
	
		<line fill="none" stroke="#000000" stroke-width="0.709" stroke-miterlimit="10" x1="1193.388" y1="1375.936" x2="1235.446" y2="1659.01"/>
	
		<line fill="none" stroke="#000000" stroke-width="0.709" stroke-miterlimit="10" x1="1235.448" y1="1659.011" x2="1278.005" y2="1376"/>
	
		<line fill="none" stroke="#000000" stroke-width="0.709" stroke-miterlimit="10" x1="864.097" y1="1137.736" x2="1235.726" y2="1124.175"/>
	<line fill="none" stroke="#000000" stroke-width="0.709" stroke-miterlimit="10" x1="947.048" y1="1376" x2="1531.847" y2="1376"/>
	
		<line fill="none" stroke="#000000" stroke-width="0.709" stroke-miterlimit="10" x1="1532.173" y1="316.594" x2="1532.173" y2="1962.775"/>
	
		<line fill="none" stroke="#000000" stroke-width="0.709" stroke-miterlimit="10" x1="1235.726" y1="1124.174" x2="1531.71" y2="1124.174"/>
	
		<line fill="none" stroke="#000000" stroke-width="0.709" stroke-miterlimit="10" x1="1531.87" y1="1962.775" x2="863.354" y2="1962.775"/>
	<path fill="none" stroke="#000000" stroke-width="0.709" stroke-miterlimit="10" d="M947.048,1376.081
		c-74.461,256.148-79.889,449.091-83.693,586.693"/>
	
		<line fill="none" stroke="#000000" stroke-width="2.835" stroke-miterlimit="10" x1="1070.517" y1="945.71" x2="1070.517" y2="1924.458"/>
	<path d="M1056.255,963.886c0,0.468,0.232,0.926,0.655,1.197c0.659,0.421,1.537,0.226,1.957-0.434l11.649-18.291l11.649,18.291
		c0.42,0.66,1.298,0.854,1.957,0.434c0.657-0.421,0.85-1.302,0.434-1.957l-12.844-20.168c-0.26-0.408-0.712-0.656-1.196-0.656
		c-0.485,0-0.936,0.248-1.196,0.656l-12.844,20.168C1056.326,963.361,1056.255,963.625,1056.255,963.886
		C1056.255,964.354,1056.255,963.625,1056.255,963.886"/>
	<path d="M1056.255,1906.283c0-0.468,0.232-0.926,0.655-1.197c0.659-0.421,1.537-0.226,1.957,0.435l11.649,18.291l11.649-18.291
		c0.42-0.66,1.298-0.855,1.957-0.435c0.657,0.421,0.85,1.302,0.434,1.957l-12.844,20.168c-0.26,0.408-0.712,0.656-1.196,0.656
		c-0.485,0-0.936-0.248-1.196-0.656l-12.844-20.168C1056.326,1906.807,1056.255,1906.542,1056.255,1906.283
		C1056.255,1905.815,1056.255,1906.542,1056.255,1906.283"/>
	<text transform="matrix(-6.123234e-17 -1 1 -6.123234e-17 1058.5469 1889.6548)"><tspan x="0" y="0" font-family="'Calibri'" font-size="24">F</tspan><tspan x="11.027" y="0" font-family="'Calibri'" font-size="24">R</tspan><tspan x="23.843" y="0" font-family="'Calibri'" font-size="24">ONT BODICE B</tspan><tspan x="165.101" y="0" font-family="'Calibri'" font-size="24">L</tspan><tspan x="174.687" y="0" font-family="'Calibri'" font-size="24">OCK</tspan></text>
	
		<text transform="matrix(-6.123234e-17 -1 1 -6.123234e-17 1092.459 1084.0474)" fill="#9A9899" font-family="'Calibri'" font-size="24">BCSizing ©</text>
	<path fill="none" stroke="#000000" stroke-width="0.709" stroke-miterlimit="10" d="M1327.127,153.881
		c56.568,177.588,205.14,162.712,205.14,162.712"/>
	
		<line fill="none" stroke="#000000" stroke-width="0.709" stroke-miterlimit="10" x1="1235.85" y1="896.496" x2="1162.574" y2="215.989"/>
	
		<line fill="none" stroke="#000000" stroke-width="0.709" stroke-miterlimit="10" x1="1327.127" y1="153.881" x2="1162.207" y2="215.989"/>
	
		<line fill="none" stroke="#000000" stroke-width="0.709" stroke-miterlimit="10" x1="1235.726" y1="896.664" x2="929.107" y2="284.745"/>
	
		<line fill="none" stroke="#000000" stroke-width="0.709" stroke-miterlimit="10" x1="929.11" y1="284.571" x2="796.321" y2="400.428"/>
	
		<line fill="none" stroke="#000000" stroke-width="0.709" stroke-miterlimit="10" x1="1048.891" y1="524.634" x2="900.758" y2="579.926"/>
	<path fill="none" stroke="#000000" stroke-width="0.709" stroke-miterlimit="10" d="M796.321,400.428
		c32.285,45.425,104.437,179.498,104.437,179.498"/>
	<text transform="matrix(1 0 0 1 1505.1689 658.8403)" font-family="'Calibri'" font-size="36">C</text>
	<text transform="matrix(1 0 0 1 1505.1689 702.0405)" font-family="'Calibri'" font-size="36">F</text>
	<text transform="matrix(-6.123234e-17 -1 1 -6.123234e-17 1058.5469 1308.7876)" font-family="'Calibri'" font-size="24">MRUK10D - MRUS6D - MREU36D</text>
</g>
</svg>
