<?xml version="1.0" encoding="utf-8"?>
<!-- Generator: Adobe Illustrator 15.0.0, SVG Export Plug-In . SVG Version: 6.00 Build 0)  -->
<!DOCTYPE svg PUBLIC "-//W3C//DTD SVG 1.1//EN" "http://www.w3.org/Graphics/SVG/1.1/DTD/svg11.dtd">
<svg version="1.1" id="Layer_1" xmlns="http://www.w3.org/2000/svg" xmlns:xlink="http://www.w3.org/1999/xlink" x="0px" y="0px"
	 width="1683.78px" height="2383.94px" viewBox="0 0 1683.78 2383.94" enable-background="new 0 0 1683.78 2383.94"
	 xml:space="preserve">
<g>
	<text transform="matrix(1.0506 0 0 1 1472.7617 876.1812)" fill="#010101" font-family="'Calibri'" font-size="24">BL</text>
	<text transform="matrix(1.0506 0 0 1 1462.7773 1341.6851)" fill="#010101" font-family="'Calibri'" font-size="24">WL</text>
	<text transform="matrix(1.0506 0 0 1 1470.5938 474.8052)" fill="#010101" font-family="'Calibri'" font-size="24">XF</text>
	<text transform="matrix(1 0 0 1.0358 1472.7617 1922.4927)" fill="#010101" font-family="'Calibri'" font-size="23.1713">HL</text>
	<text transform="matrix(1.0506 0 0 1 1466.5293 1086.4165)" fill="#010101" font-family="'Calibri'" font-size="24">UB</text>
	
		<line fill="none" stroke="#000000" stroke-width="0.709" stroke-miterlimit="10" x1="1222.722" y1="1933.904" x2="1222.722" y2="881.948"/>
	
		<line fill="none" stroke="#000000" stroke-width="0.709" stroke-miterlimit="10" x1="1504.695" y1="881.948" x2="1222.632" y2="881.947"/>
	
		<line fill="none" stroke="#000000" stroke-width="0.709" stroke-miterlimit="10" x1="1504.622" y1="482.19" x2="1170.436" y2="482.189"/>
	
		<line fill="none" stroke="#000000" stroke-width="0.709" stroke-miterlimit="10" x1="920.098" y1="1347.268" x2="786.075" y2="856.942"/>
	
		<line fill="none" stroke="#000000" stroke-width="0.709" stroke-miterlimit="10" x1="800.544" y1="911.241" x2="1222.941" y2="881.948"/>
	
		<circle fill="none" stroke="#000000" stroke-width="0.283" stroke-miterlimit="10" stroke-dasharray="0.567,0.567" cx="1222.243" cy="880.949" r="218.266"/>
	<path fill="none" stroke="#000000" stroke-width="0.709" stroke-miterlimit="10" d="M898.594,566.267
		c101.829,243.862-112.519,290.937-112.519,290.937"/>
	
		<line fill="none" stroke="#000000" stroke-width="0.709" stroke-miterlimit="10" x1="1265.06" y1="1347.397" x2="1222.722" y2="881.948"/>
	
		<line fill="none" stroke="#000000" stroke-width="0.709" stroke-miterlimit="10" x1="1222.722" y1="881.948" x2="1180.421" y2="1347.299"/>
	
		<line fill="none" stroke="#000000" stroke-width="0.709" stroke-miterlimit="10" x1="1180.421" y1="1347.299" x2="1222.442" y2="1630.795"/>
	
		<line fill="none" stroke="#000000" stroke-width="0.709" stroke-miterlimit="10" x1="1222.444" y1="1630.795" x2="1265.06" y2="1347.397"/>
	
		<line fill="none" stroke="#000000" stroke-width="0.709" stroke-miterlimit="10" x1="854.505" y1="1104.321" x2="1222.723" y2="1095.641"/>
	
		<line fill="none" stroke="#000000" stroke-width="0.709" stroke-miterlimit="10" x1="919.89" y1="1347.299" x2="1504.689" y2="1347.299"/>
	
		<line fill="none" stroke="#000000" stroke-width="0.709" stroke-miterlimit="10" x1="1505.015" y1="316.54" x2="1505.015" y2="1934.073"/>
	
		<line fill="none" stroke="#000000" stroke-width="0.709" stroke-miterlimit="10" x1="1222.242" y1="1095.472" x2="1504.553" y2="1095.472"/>
	
		<line fill="none" stroke="#000000" stroke-width="0.709" stroke-miterlimit="10" x1="1504.712" y1="1934.073" x2="836.196" y2="1934.073"/>
	<path fill="none" stroke="#000000" stroke-width="0.709" stroke-miterlimit="10" d="M919.89,1347.379
		c-74.461,256.147-79.889,449.089-83.693,586.692"/>
	
		<line fill="none" stroke="#000000" stroke-width="2.835" stroke-miterlimit="10" x1="1033.751" y1="927.054" x2="1033.751" y2="1910.632"/>
	<path d="M1019.489,945.23c0,0.468,0.233,0.926,0.656,1.197c0.659,0.421,1.536,0.226,1.957-0.434l11.648-18.291l11.649,18.291
		c0.42,0.66,1.298,0.855,1.957,0.434c0.658-0.421,0.849-1.302,0.434-1.957l-12.844-20.168c-0.26-0.408-0.712-0.656-1.196-0.656
		s-0.936,0.248-1.195,0.656l-12.846,20.168C1019.562,944.705,1019.489,944.97,1019.489,945.23
		C1019.489,945.698,1019.489,944.97,1019.489,945.23"/>
	<path d="M1019.489,1892.457c0-0.468,0.233-0.926,0.656-1.196c0.659-0.422,1.536-0.227,1.957,0.434l11.648,18.291l11.649-18.291
		c0.42-0.66,1.298-0.855,1.957-0.434c0.658,0.421,0.849,1.302,0.434,1.956l-12.844,20.169c-0.26,0.407-0.712,0.655-1.196,0.655
		s-0.936-0.248-1.195-0.655l-12.846-20.169C1019.562,1892.982,1019.489,1892.716,1019.489,1892.457
		C1019.489,1891.989,1019.489,1892.716,1019.489,1892.457"/>
	<text transform="matrix(-6.123234e-17 -1 1 -6.123234e-17 1019.7461 1871.2368)"><tspan x="0" y="0" font-family="'Calibri'" font-size="24">F</tspan><tspan x="11.027" y="0" font-family="'Calibri'" font-size="24">R</tspan><tspan x="23.843" y="0" font-family="'Calibri'" font-size="24">ONT BODICE B</tspan><tspan x="165.101" y="0" font-family="'Calibri'" font-size="24">L</tspan><tspan x="174.687" y="0" font-family="'Calibri'" font-size="24">OCK</tspan></text>
	
		<text transform="matrix(-6.123234e-17 -1 1 -6.123234e-17 1057.4736 1067.7163)" fill="#9A9899" font-family="'Calibri'" font-size="24">BCSizing ©</text>
	<path fill="none" stroke="#000000" stroke-width="0.709" stroke-miterlimit="10" d="M1299.969,153.418
		c56.46,177.7,204.747,162.814,204.747,162.814"/>
	
		<line fill="none" stroke="#000000" stroke-width="0.709" stroke-miterlimit="10" x1="1222.846" y1="882.019" x2="1135.479" y2="215.527"/>
	
		<line fill="none" stroke="#000000" stroke-width="0.709" stroke-miterlimit="10" x1="1299.969" y1="153.418" x2="1135.049" y2="215.526"/>
	
		<line fill="none" stroke="#000000" stroke-width="0.709" stroke-miterlimit="10" x1="1222.722" y1="882.019" x2="936.013" y2="274.035"/>
	
		<line fill="none" stroke="#000000" stroke-width="0.709" stroke-miterlimit="10" x1="935.964" y1="273.88" x2="797.885" y2="383.381"/>
	
		<line fill="none" stroke="#000000" stroke-width="0.709" stroke-miterlimit="10" x1="1050.57" y1="517.414" x2="898.467" y2="566.188"/>
	<path fill="none" stroke="#000000" stroke-width="0.709" stroke-miterlimit="10" d="M797.885,383.381
		c31.104,43.159,100.581,182.807,100.581,182.807"/>
	<text transform="matrix(1 0 0 1 1476.3408 668.2622)" font-family="'Calibri'" font-size="36">C</text>
	<text transform="matrix(1 0 0 1 1476.3408 711.4624)" font-family="'Calibri'" font-size="36">F</text>
	<text transform="matrix(-6.123234e-17 -1 1 -6.123234e-17 1019.7461 1278.2153)" font-family="'Calibri'" font-size="24">MRUK10C - MRUS6C - MREU36C</text>
</g>
<g>
	
		<line fill="none" stroke="#000000" stroke-width="2.835" stroke-miterlimit="10" x1="481.123" y1="947.726" x2="481.123" y2="1881.218"/>
	<path d="M466.86,965.902c0,0.468,0.233,0.926,0.656,1.197c0.659,0.421,1.536,0.226,1.957-0.434l11.649-18.291l11.648,18.291
		c0.421,0.66,1.299,0.855,1.958,0.434c0.658-0.421,0.849-1.302,0.434-1.957l-12.844-20.168c-0.261-0.408-0.712-0.656-1.196-0.656
		c-0.485,0-0.936,0.248-1.196,0.656l-12.845,20.168C466.933,965.377,466.86,965.642,466.86,965.902
		C466.86,966.37,466.86,965.642,466.86,965.902"/>
	<path d="M466.86,1863.043c0-0.469,0.233-0.927,0.656-1.197c0.659-0.421,1.536-0.227,1.957,0.434l11.649,18.291l11.648-18.291
		c0.421-0.66,1.299-0.854,1.958-0.434c0.658,0.421,0.849,1.302,0.434,1.957l-12.844,20.168c-0.261,0.408-0.712,0.656-1.196,0.656
		c-0.485,0-0.936-0.248-1.196-0.656l-12.845-20.168C466.933,1863.568,466.86,1863.303,466.86,1863.043
		C466.86,1862.575,466.86,1863.303,466.86,1863.043"/>
	<text transform="matrix(-6.123234e-17 -1 1 -6.123234e-17 466.3125 1842.6489)"><tspan x="0" y="0" font-family="'Calibri'" font-size="24">B</tspan><tspan x="12.838" y="0" font-family="'Calibri'" font-size="24">A</tspan><tspan x="26.557" y="0" font-family="'Calibri'" font-size="24">CK BODICE B</tspan><tspan x="150.002" y="0" font-family="'Calibri'" font-size="24">L</tspan><tspan x="159.588" y="0" font-family="'Calibri'" font-size="24">OCK</tspan></text>
	
		<text transform="matrix(-6.123234e-17 -1 1 -6.123234e-17 506.4639 1093.2729)" fill="#9A9899" font-family="'Calibri'" font-size="24">BCSizing ©</text>
	<text transform="matrix(1.0506 0 0 1 67.1494 489.7817)" fill="#010101" font-family="'Calibri'" font-size="24">XB</text>
	<text transform="matrix(1.0506 0 0 1 67.1494 1085.9658)" fill="#010101" font-family="'Calibri'" font-size="24">UB</text>
	<text transform="matrix(1.0506 0 0 1 66.3931 1334.3179)" fill="#010101" font-family="'Calibri'" font-size="24">WL</text>
	<text transform="matrix(1.0506 0 0 1 70.0996 1919.606)" fill="#010101" font-family="'Calibri'" font-size="24">HL</text>
	<text transform="matrix(1 0 0 1 67.1494 890.3481)" font-family="'Calibri'" font-size="24">BL</text>
	
		<line fill="none" stroke="#000000" stroke-width="0.709" stroke-miterlimit="10" x1="58.688" y1="1347.045" x2="643.762" y2="1347.045"/>
	
		<line fill="none" stroke="#000000" stroke-width="0.709" stroke-miterlimit="10" x1="58.69" y1="496.57" x2="578.151" y2="496.57"/>
	<path fill="none" stroke="#000000" stroke-width="0.709" stroke-miterlimit="10" d="M593.165,305.893
		c-7.293,40.661-15.424,190.677-15.424,190.677"/>
	
		<line fill="none" stroke="#000000" stroke-width="0.709" stroke-miterlimit="10" x1="643.763" y1="1347.15" x2="659.834" y2="839.416"/>
	
		<line fill="none" stroke="#000000" stroke-width="0.709" stroke-miterlimit="10" x1="285.001" y1="1347.217" x2="326.501" y2="896.228"/>
	
		<line fill="none" stroke="#000000" stroke-width="0.709" stroke-miterlimit="10" x1="326.501" y1="896.227" x2="368.834" y2="1347.135"/>
	
		<line fill="none" stroke="#000000" stroke-width="0.709" stroke-miterlimit="10" x1="58.682" y1="896.227" x2="658.256" y2="896.227"/>
	<path fill="none" stroke="#000000" stroke-width="0.709" stroke-miterlimit="10" d="M263.688,182
		c-13.43,40.5-204.998,36.97-204.998,36.97"/>
	<path fill="none" stroke="#000000" stroke-width="0.709" stroke-miterlimit="10" d="M577.702,496.42
		c0,0-19.707,349.027,82.133,343.125"/>
	
		<line fill="none" stroke="#000000" stroke-width="0.709" stroke-miterlimit="10" x1="58.971" y1="1933.831" x2="727.487" y2="1933.831"/>
	<path fill="none" stroke="#000000" stroke-width="0.709" stroke-miterlimit="10" d="M643.763,1347.15
		c74.637,256.143,80.08,449.079,83.892,586.681"/>
	
		<line fill="none" stroke="#000000" stroke-width="0.709" stroke-miterlimit="10" x1="326.501" y1="896.227" x2="326.501" y2="1933.832"/>
	
		<line fill="none" stroke="#000000" stroke-width="0.709" stroke-miterlimit="10" x1="368.834" y1="1347.135" x2="326.501" y2="1744.774"/>
	
		<line fill="none" stroke="#000000" stroke-width="0.709" stroke-miterlimit="10" x1="326.501" y1="1744.774" x2="285.001" y2="1347.217"/>
	
		<line fill="none" stroke="#000000" stroke-width="0.709" stroke-miterlimit="10" x1="58.682" y1="217.904" x2="58.682" y2="1933.831"/>
	
		<line fill="none" stroke="#000000" stroke-width="0.709" stroke-miterlimit="10" x1="58.682" y1="1095.206" x2="650.825" y2="1095.206"/>
	
		<line fill="none" stroke="#000000" stroke-width="0.709" stroke-miterlimit="10" x1="263.688" y1="182" x2="593.531" y2="306.216"/>
	<text transform="matrix(1 0 0 1 67.1499 668.02)" font-family="'Calibri'" font-size="36">C</text>
	<text transform="matrix(1 0 0 1 67.1499 711.2202)" font-family="'Calibri'" font-size="36">B</text>
	<text transform="matrix(-6.123234e-17 -1 1 -6.123234e-17 466.312 1308.2056)" font-family="'Calibri'" font-size="24">MRUK10C - MRUS6C - MREU36C</text>
</g>
</svg>
