<?xml version="1.0" encoding="utf-8"?>
<!-- Generator: Adobe Illustrator 15.0.0, SVG Export Plug-In . SVG Version: 6.00 Build 0)  -->
<!DOCTYPE svg PUBLIC "-//W3C//DTD SVG 1.1//EN" "http://www.w3.org/Graphics/SVG/1.1/DTD/svg11.dtd">
<svg version="1.1" id="Layer_1" xmlns="http://www.w3.org/2000/svg" xmlns:xlink="http://www.w3.org/1999/xlink" x="0px" y="0px"
	 width="1683.78px" height="2383.94px" viewBox="0 0 1683.78 2383.94" enable-background="new 0 0 1683.78 2383.94"
	 xml:space="preserve">
<g>
	<text transform="matrix(1.0506 0 0 1 1499.5146 890.4058)" fill="#010101" font-family="'Calibri'" font-size="24">BL</text>
	<text transform="matrix(1.0506 0 0 1 1485.5713 1385.7173)" fill="#010101" font-family="'Calibri'" font-size="24">WL</text>
	<text transform="matrix(1.0506 0 0 1 1499.5146 461.0698)" fill="#010101" font-family="'Calibri'" font-size="24">XF</text>
	<text transform="matrix(1 0 0 1.0358 1494.2783 1969.5503)" fill="#010101" font-family="'Calibri'" font-size="23.1713">HL</text>
	<text transform="matrix(1.0506 0 0 1 1492.332 1135.7896)" fill="#010101" font-family="'Calibri'" font-size="24">UB</text>
	
		<line fill="none" stroke="#000000" stroke-width="0.709" stroke-miterlimit="10" x1="1220.271" y1="1977.87" x2="1220.272" y2="897.589"/>
	
		<line fill="none" stroke="#000000" stroke-width="0.709" stroke-miterlimit="10" x1="1530.499" y1="897.589" x2="1220.272" y2="897.588"/>
	
		<line fill="none" stroke="#000000" stroke-width="0.709" stroke-miterlimit="10" x1="1530.427" y1="469.489" x2="1183.975" y2="469.488"/>
	
		<line fill="none" stroke="#000000" stroke-width="0.709" stroke-miterlimit="10" x1="945.99" y1="1391.333" x2="738.717" y2="926.5"/>
	
		<line fill="none" stroke="#000000" stroke-width="0.709" stroke-miterlimit="10" x1="761.717" y1="977.663" x2="1220.273" y2="897.589"/>
	
		<ellipse fill="none" stroke="#000000" stroke-width="0.283" stroke-miterlimit="10" stroke-dasharray="0.567,0.567" cx="1219.793" cy="896.59" rx="255.111" ry="255.304"/>
	<path fill="none" stroke="#000000" stroke-width="0.709" stroke-miterlimit="10" d="M874.279,580.183
		c125.878,264.744-135.562,346.633-135.562,346.633"/>
	
		<line fill="none" stroke="#000000" stroke-width="0.709" stroke-miterlimit="10" x1="1263.149" y1="1391.163" x2="1220.272" y2="897.589"/>
	
		<line fill="none" stroke="#000000" stroke-width="0.709" stroke-miterlimit="10" x1="1220.272" y1="897.589" x2="1178.573" y2="1391.342"/>
	
		<line fill="none" stroke="#000000" stroke-width="0.709" stroke-miterlimit="10" x1="1178.517" y1="1391.206" x2="1220.576" y2="1674.273"/>
	
		<line fill="none" stroke="#000000" stroke-width="0.709" stroke-miterlimit="10" x1="1220.577" y1="1674.274" x2="1263.149" y2="1391.163"/>
	
		<line fill="none" stroke="#000000" stroke-width="0.709" stroke-miterlimit="10" x1="844.056" y1="1160.61" x2="1220.271" y2="1139.438"/>
	
		<line fill="none" stroke="#000000" stroke-width="0.709" stroke-miterlimit="10" x1="945.694" y1="1391.264" x2="1530.493" y2="1391.264"/>
	
		<line fill="none" stroke="#000000" stroke-width="0.709" stroke-miterlimit="10" x1="1530.819" y1="303.838" x2="1530.819" y2="1978.038"/>
	
		<line fill="none" stroke="#000000" stroke-width="0.709" stroke-miterlimit="10" x1="1220.653" y1="1139.438" x2="1530.356" y2="1139.438"/>
	
		<line fill="none" stroke="#000000" stroke-width="0.709" stroke-miterlimit="10" x1="1530.517" y1="1978.038" x2="862.001" y2="1978.038"/>
	<path fill="none" stroke="#000000" stroke-width="0.709" stroke-miterlimit="10" d="M945.694,1391.344
		c-74.461,256.147-79.889,449.09-83.692,586.692"/>
	
		<line fill="none" stroke="#000000" stroke-width="2.835" stroke-miterlimit="10" x1="1056.389" y1="959.305" x2="1056.389" y2="1947.736"/>
	<path d="M1042.127,977.481c0,0.468,0.232,0.926,0.655,1.197c0.659,0.421,1.537,0.226,1.957-0.434l11.649-18.291l11.648,18.291
		c0.42,0.66,1.299,0.855,1.957,0.434s0.851-1.302,0.435-1.957l-12.845-20.168c-0.26-0.408-0.712-0.656-1.195-0.656
		c-0.485,0-0.937,0.248-1.196,0.656l-12.845,20.168C1042.198,976.956,1042.127,977.221,1042.127,977.481
		C1042.127,977.949,1042.127,977.221,1042.127,977.481"/>
	<path d="M1042.127,1929.561c0-0.468,0.232-0.926,0.655-1.197c0.659-0.421,1.537-0.226,1.957,0.435l11.649,18.291l11.648-18.291
		c0.42-0.66,1.299-0.855,1.957-0.435s0.851,1.302,0.435,1.957l-12.845,20.168c-0.26,0.408-0.712,0.656-1.195,0.656
		c-0.485,0-0.937-0.248-1.196-0.656l-12.845-20.168C1042.198,1930.086,1042.127,1929.821,1042.127,1929.561
		C1042.127,1929.093,1042.127,1929.821,1042.127,1929.561"/>
	<text transform="matrix(-6.123234e-17 -1 1 -6.123234e-17 1042.8105 1909.4849)"><tspan x="0" y="0" font-family="'Calibri'" font-size="24">F</tspan><tspan x="11.027" y="0" font-family="'Calibri'" font-size="24">R</tspan><tspan x="23.843" y="0" font-family="'Calibri'" font-size="24">ONT BODICE B</tspan><tspan x="165.101" y="0" font-family="'Calibri'" font-size="24">L</tspan><tspan x="174.687" y="0" font-family="'Calibri'" font-size="24">OCK</tspan></text>
	
		<text transform="matrix(-6.123234e-17 -1 1 -6.123234e-17 1083.1309 1099.7241)" fill="#9A9899" font-family="'Calibri'" font-size="24">BCSizing ©</text>
	<path fill="none" stroke="#000000" stroke-width="0.709" stroke-miterlimit="10" d="M1326.044,140.783
		c56.493,177.628,204.869,162.749,204.869,162.749"/>
	
		<line fill="none" stroke="#000000" stroke-width="0.709" stroke-miterlimit="10" x1="1220.396" y1="897.66" x2="1161.283" y2="202.729"/>
	
		<line fill="none" stroke="#000000" stroke-width="0.709" stroke-miterlimit="10" x1="1325.772" y1="140.783" x2="1160.853" y2="202.89"/>
	
		<line fill="none" stroke="#000000" stroke-width="0.709" stroke-miterlimit="10" x1="1220.396" y1="897.66" x2="892.38" y2="282.168"/>
	
		<line fill="none" stroke="#000000" stroke-width="0.709" stroke-miterlimit="10" x1="892.38" y1="282.168" x2="765.247" y2="404.207"/>
	
		<line fill="none" stroke="#000000" stroke-width="0.709" stroke-miterlimit="10" x1="1018.095" y1="518.596" x2="874.281" y2="580.211"/>
	<path fill="none" stroke="#000000" stroke-width="0.709" stroke-miterlimit="10" d="M764.913,404.526
		c32.273,42.445,109.367,175.687,109.367,175.687"/>
	<text transform="matrix(1 0 0 1 1505.1055 649.4907)" font-family="'Calibri'" font-size="36">C</text>
	<text transform="matrix(1 0 0 1 1505.1055 692.6909)" font-family="'Calibri'" font-size="36">F</text>
	<text transform="matrix(-6.123234e-17 -1 1 -6.123234e-17 1046.3555 1361.3149)" font-family="'Calibri'" font-size="24">MRUK10DD - MRUS6DD - MREU36DD</text>
</g>
<g>
	
		<line fill="none" stroke="#000000" stroke-width="2.835" stroke-miterlimit="10" x1="510.564" y1="976.02" x2="510.564" y2="1944.374"/>
	<path d="M496.303,994.195c0,0.468,0.233,0.926,0.656,1.197c0.659,0.421,1.536,0.226,1.957-0.434l11.649-18.291l11.649,18.291
		c0.42,0.66,1.298,0.854,1.957,0.434c0.658-0.421,0.849-1.302,0.434-1.957l-12.844-20.168c-0.26-0.408-0.712-0.656-1.196-0.656
		c-0.485,0-0.936,0.248-1.196,0.656l-12.845,20.168C496.375,993.67,496.303,993.935,496.303,994.195
		C496.303,994.663,496.303,993.935,496.303,994.195"/>
	<path d="M496.303,1926.198c0-0.468,0.233-0.926,0.656-1.197c0.659-0.421,1.536-0.226,1.957,0.434l11.649,18.291l11.649-18.291
		c0.42-0.659,1.298-0.854,1.957-0.434c0.658,0.421,0.849,1.302,0.434,1.957l-12.844,20.168c-0.26,0.408-0.712,0.656-1.196,0.656
		c-0.485,0-0.936-0.248-1.196-0.656l-12.845-20.168C496.375,1926.722,496.303,1926.458,496.303,1926.198
		C496.303,1925.73,496.303,1926.458,496.303,1926.198"/>
	<text transform="matrix(-6.123234e-17 -1 1 -6.123234e-17 499.3652 1907.0532)"><tspan x="0" y="0" font-family="'Calibri'" font-size="24">B</tspan><tspan x="12.84" y="0" font-family="'Calibri'" font-size="24">A</tspan><tspan x="26.559" y="0" font-family="'Calibri'" font-size="24">CK BODICE B</tspan><tspan x="150.004" y="0" font-family="'Calibri'" font-size="24">L</tspan><tspan x="159.589" y="0" font-family="'Calibri'" font-size="24">OCK</tspan></text>
	
		<text transform="matrix(-6.123234e-17 -1 1 -6.123234e-17 536.3496 1120.9575)" fill="#9A9899" font-family="'Calibri'" font-size="24">BCSizing ©</text>
	<text transform="matrix(1.0506 0 0 1 64.0234 534.7329)" fill="#010101" font-family="'Calibri'" font-size="24">XB</text>
	<text transform="matrix(1.0506 0 0 1 68.4863 1133.8931)" fill="#010101" font-family="'Calibri'" font-size="24">UB</text>
	<text transform="matrix(1.0506 0 0 1 68.4863 1383.229)" fill="#010101" font-family="'Calibri'" font-size="24">WL</text>
	<text transform="matrix(1.0506 0 0 1 68.4863 1967.8931)" fill="#010101" font-family="'Calibri'" font-size="24">HL</text>
	<text transform="matrix(1 0 0 1 64.1729 936.3579)" font-family="'Calibri'" font-size="24">BL</text>
	
		<line fill="none" stroke="#000000" stroke-width="0.709" stroke-miterlimit="10" x1="57.795" y1="1392.143" x2="642.869" y2="1392.143"/>
	
		<line fill="none" stroke="#000000" stroke-width="0.709" stroke-miterlimit="10" x1="57.797" y1="541.668" x2="577.258" y2="541.668"/>
	<path fill="none" stroke="#000000" stroke-width="0.709" stroke-miterlimit="10" d="M592.271,350.991
		c-7.293,40.662-15.424,190.677-15.424,190.677"/>
	
		<line fill="none" stroke="#000000" stroke-width="0.709" stroke-miterlimit="10" x1="642.87" y1="1392.248" x2="658.941" y2="884.514"/>
	
		<line fill="none" stroke="#000000" stroke-width="0.709" stroke-miterlimit="10" x1="284.108" y1="1392.315" x2="325.608" y2="941.325"/>
	
		<line fill="none" stroke="#000000" stroke-width="0.709" stroke-miterlimit="10" x1="325.608" y1="941.325" x2="367.941" y2="1392.233"/>
	
		<line fill="none" stroke="#000000" stroke-width="0.709" stroke-miterlimit="10" x1="57.789" y1="941.325" x2="657.363" y2="941.325"/>
	<path fill="none" stroke="#000000" stroke-width="0.709" stroke-miterlimit="10" d="M262.795,227.098
		c-13.43,40.5-204.998,36.97-204.998,36.97"/>
	<path fill="none" stroke="#000000" stroke-width="0.709" stroke-miterlimit="10" d="M576.809,541.518
		c0,0-19.707,349.027,82.133,343.125"/>
	
		<line fill="none" stroke="#000000" stroke-width="0.709" stroke-miterlimit="10" x1="58.078" y1="1978.928" x2="726.594" y2="1978.928"/>
	<path fill="none" stroke="#000000" stroke-width="0.709" stroke-miterlimit="10" d="M642.87,1392.248
		c74.637,256.142,80.08,449.079,83.892,586.681"/>
	
		<line fill="none" stroke="#000000" stroke-width="0.709" stroke-miterlimit="10" x1="325.608" y1="941.325" x2="325.608" y2="1978.928"/>
	
		<line fill="none" stroke="#000000" stroke-width="0.709" stroke-miterlimit="10" x1="367.941" y1="1392.233" x2="325.608" y2="1789.872"/>
	
		<line fill="none" stroke="#000000" stroke-width="0.709" stroke-miterlimit="10" x1="325.608" y1="1789.872" x2="284.108" y2="1392.315"/>
	
		<line fill="none" stroke="#000000" stroke-width="0.709" stroke-miterlimit="10" x1="57.789" y1="263.001" x2="57.789" y2="1978.928"/>
	
		<line fill="none" stroke="#000000" stroke-width="0.709" stroke-miterlimit="10" x1="57.789" y1="1140.303" x2="649.932" y2="1140.303"/>
	
		<line fill="none" stroke="#000000" stroke-width="0.709" stroke-miterlimit="10" x1="262.795" y1="227.098" x2="592.638" y2="351.314"/>
	<text transform="matrix(1 0 0 1 66.189 705.3091)" font-family="'Calibri'" font-size="36">C</text>
	<text transform="matrix(1 0 0 1 66.189 748.5093)" font-family="'Calibri'" font-size="36">B</text>
	<text transform="matrix(-6.123234e-17 -1 1 -6.123234e-17 499.3657 1383.2134)" font-family="'Calibri'" font-size="24">MRUK10DD - MRUS6DD - MREU36DD</text>
</g>
</svg>
