<?xml version="1.0" encoding="utf-8"?>
<!-- Generator: Adobe Illustrator 15.0.0, SVG Export Plug-In . SVG Version: 6.00 Build 0)  -->
<!DOCTYPE svg PUBLIC "-//W3C//DTD SVG 1.1//EN" "http://www.w3.org/Graphics/SVG/1.1/DTD/svg11.dtd">
<svg version="1.1" id="Layer_1" xmlns="http://www.w3.org/2000/svg" xmlns:xlink="http://www.w3.org/1999/xlink" x="0px" y="0px"
	 width="1683.78px" height="2383.94px" viewBox="0 0 1683.78 2383.94" enable-background="new 0 0 1683.78 2383.94"
	 xml:space="preserve">
<g>
	<g>
		<g>
			
				<line fill="none" stroke="#000000" stroke-width="2.835" stroke-miterlimit="10" x1="508.203" y1="938.727" x2="508.203" y2="1891.815"/>
			<g>
				<path d="M493.939,956.905c0,0.468,0.232,0.926,0.656,1.197c0.659,0.421,1.537,0.226,1.958-0.435l11.65-18.293l11.65,18.293
					c0.421,0.66,1.299,0.855,1.958,0.435c0.659-0.421,0.85-1.303,0.435-1.957l-12.846-20.17c-0.26-0.409-0.711-0.656-1.196-0.656
					s-0.936,0.248-1.196,0.656l-12.846,20.17C494.012,956.38,493.939,956.645,493.939,956.905
					C493.939,957.373,493.939,956.645,493.939,956.905z"/>
			</g>
			<g>
				<path d="M493.939,1873.637c0-0.469,0.232-0.927,0.656-1.198c0.659-0.421,1.537-0.226,1.958,0.435l11.65,18.294l11.65-18.294
					c0.421-0.66,1.299-0.855,1.958-0.435c0.659,0.421,0.85,1.303,0.435,1.958l-12.846,20.17c-0.26,0.408-0.711,0.656-1.196,0.656
					s-0.936-0.248-1.196-0.656l-12.846-20.17C494.012,1874.162,493.939,1873.897,493.939,1873.637
					C493.939,1873.168,493.939,1873.897,493.939,1873.637z"/>
			</g>
		</g>
	</g>
	<text transform="matrix(-6.123234e-17 -1 1 -6.123234e-17 491.5078 1856.8521)"><tspan x="0" y="0" font-family="'Calibri'" font-size="28.3465">B</tspan><tspan x="15.164" y="0" font-family="'Calibri'" font-size="28.3465">A</tspan><tspan x="31.367" y="0" font-family="'Calibri'" font-size="28.3465">CK BODICE B</tspan><tspan x="177.168" y="0" font-family="'Calibri'" font-size="28.3465">L</tspan><tspan x="188.49" y="0" font-family="'Calibri'" font-size="28.3465">OCK</tspan></text>
	
		<text transform="matrix(-6.123234e-17 -1 1 -6.123234e-17 540.1787 1100.5679)" fill="#9A9899" font-family="'Calibri'" font-size="28.3465">BCSizing ©</text>
	<text transform="matrix(1.0506 0 0 1 63.5767 502.0864)" fill="#010101" font-family="'Calibri'" font-size="24">XB</text>
	<text transform="matrix(1.0506 0 0 1 66.5771 1096.7827)" fill="#010101" font-family="'Calibri'" font-size="24">UB</text>
	<text transform="matrix(1.0506 0 0 1 69.4263 1346.7661)" fill="#010101" font-family="'Calibri'" font-size="24">WL</text>
	<text transform="matrix(1.0506 0 0 1 69.4263 1937.3345)" fill="#010101" font-family="'Calibri'" font-size="24">HL</text>
	<text transform="matrix(1 0 0 1 67.5708 899.9888)" font-family="'Calibri'" font-size="24">BL</text>
	
		<line fill="none" stroke="#000000" stroke-width="0.709" stroke-miterlimit="10" x1="57.348" y1="1359.497" x2="642.421" y2="1359.497"/>
	
		<line fill="none" stroke="#000000" stroke-width="0.709" stroke-miterlimit="10" x1="57.35" y1="509.021" x2="576.811" y2="509.021"/>
	<path fill="none" stroke="#000000" stroke-width="0.709" stroke-miterlimit="10" d="M591.824,318.344
		c-7.293,40.661-15.424,190.677-15.424,190.677"/>
	
		<line fill="none" stroke="#000000" stroke-width="0.709" stroke-miterlimit="10" x1="642.423" y1="1359.601" x2="658.494" y2="851.867"/>
	
		<line fill="none" stroke="#000000" stroke-width="0.709" stroke-miterlimit="10" x1="283.661" y1="1359.668" x2="325.161" y2="908.679"/>
	
		<line fill="none" stroke="#000000" stroke-width="0.709" stroke-miterlimit="10" x1="325.161" y1="908.678" x2="367.494" y2="1359.586"/>
	
		<line fill="none" stroke="#000000" stroke-width="0.709" stroke-miterlimit="10" x1="57.342" y1="908.678" x2="656.916" y2="908.678"/>
	<path fill="none" stroke="#000000" stroke-width="0.709" stroke-miterlimit="10" d="M262.348,194.451
		c-13.43,40.5-204.998,36.97-204.998,36.97"/>
	<path fill="none" stroke="#000000" stroke-width="0.709" stroke-miterlimit="10" d="M576.361,508.872
		c0,0-19.707,349.027,82.133,343.125"/>
	
		<line fill="none" stroke="#000000" stroke-width="0.709" stroke-miterlimit="10" x1="57.631" y1="1946.282" x2="726.147" y2="1946.282"/>
	<path fill="none" stroke="#000000" stroke-width="0.709" stroke-miterlimit="10" d="M642.423,1359.601
		c74.637,256.143,80.08,449.079,83.892,586.681"/>
	
		<line fill="none" stroke="#000000" stroke-width="0.709" stroke-miterlimit="10" x1="325.161" y1="908.678" x2="325.161" y2="1946.282"/>
	
		<line fill="none" stroke="#000000" stroke-width="0.709" stroke-miterlimit="10" x1="367.494" y1="1359.586" x2="325.161" y2="1757.225"/>
	
		<line fill="none" stroke="#000000" stroke-width="0.709" stroke-miterlimit="10" x1="325.161" y1="1757.225" x2="283.661" y2="1359.668"/>
	
		<line fill="none" stroke="#000000" stroke-width="0.709" stroke-miterlimit="10" x1="57.342" y1="230.355" x2="57.342" y2="1946.282"/>
	
		<line fill="none" stroke="#000000" stroke-width="0.709" stroke-miterlimit="10" x1="57.342" y1="1107.657" x2="649.485" y2="1107.657"/>
	
		<line fill="none" stroke="#000000" stroke-width="0.709" stroke-miterlimit="10" x1="262.348" y1="194.451" x2="592.19" y2="318.667"/>
	<text transform="matrix(1 0 0 1 66.5728 684.4116)" font-family="'Calibri'" font-size="36">C</text>
	<text transform="matrix(1 0 0 1 66.5728 727.6118)" font-family="'Calibri'" font-size="36">B</text>
	<text transform="matrix(-6.123234e-17 -1 1 -6.123234e-17 495.9209 1290.1001)" font-family="'Calibri'" font-size="24">MRUK10E - MRUS6E - MREU36E</text>
</g>
<g>
	<text transform="matrix(1.0506 0 0 1 1528.5596 844.8647)" fill="#010101" font-family="'Calibri'" font-size="24">BL</text>
	<text transform="matrix(1.0506 0 0 1 1518.7266 1353.5923)" fill="#010101" font-family="'Calibri'" font-size="24">WL</text>
	<text transform="matrix(1.0506 0 0 1 1527.9541 402.9526)" fill="#010101" font-family="'Calibri'" font-size="24">XF</text>
	<text transform="matrix(1 0 0 1.0358 1522.4297 1934.3423)" fill="#010101" font-family="'Calibri'" font-size="23.1713">HL</text>
	<text transform="matrix(1.0506 0 0 1 1520.4834 1098.3394)" fill="#010101" font-family="'Calibri'" font-size="24">UB</text>
	
		<line fill="none" stroke="#000000" stroke-width="0.709" stroke-miterlimit="10" x1="1234.197" y1="1945.827" x2="1234.198" y2="851.129"/>
	
		<line fill="none" stroke="#000000" stroke-width="0.709" stroke-miterlimit="10" x1="1558.939" y1="851.393" x2="1233.938" y2="851.392"/>
	
		<line fill="none" stroke="#000000" stroke-width="0.709" stroke-miterlimit="10" x1="1558.577" y1="409.105" x2="1206.323" y2="409.104"/>
	
		<line fill="none" stroke="#000000" stroke-width="0.709" stroke-miterlimit="10" x1="974.141" y1="1359.29" x2="732.223" y2="912.064"/>
	
		<line fill="none" stroke="#000000" stroke-width="0.709" stroke-miterlimit="10" x1="758.995" y1="961.557" x2="1233.938" y2="851.392"/>
	
		<ellipse fill="none" stroke="#000000" stroke-width="0.283" stroke-miterlimit="10" stroke-dasharray="0.567,0.567" cx="1233.719" cy="850.072" rx="271.825" ry="272.16"/>
	<path fill="none" stroke="#000000" stroke-width="0.709" stroke-miterlimit="10" d="M877.292,532.281
		c141.224,262.87-145.069,380.129-145.069,380.129"/>
	
		<line fill="none" stroke="#000000" stroke-width="0.709" stroke-miterlimit="10" x1="1276.677" y1="1359.222" x2="1233.938" y2="851.392"/>
	
		<line fill="none" stroke="#000000" stroke-width="0.709" stroke-miterlimit="10" x1="1234.198" y1="851.129" x2="1192.022" y2="1359.301"/>
	
		<line fill="none" stroke="#000000" stroke-width="0.709" stroke-miterlimit="10" x1="1192.001" y1="1359.158" x2="1234.06" y2="1643.259"/>
	
		<line fill="none" stroke="#000000" stroke-width="0.709" stroke-miterlimit="10" x1="1234.062" y1="1643.258" x2="1276.677" y2="1359.223"/>
	
		<line fill="none" stroke="#000000" stroke-width="0.709" stroke-miterlimit="10" x1="855.925" y1="1137.245" x2="1234.198" y2="1107.877"/>
	
		<line fill="none" stroke="#000000" stroke-width="0.709" stroke-miterlimit="10" x1="973.845" y1="1359.222" x2="1558.644" y2="1359.222"/>
	
		<line fill="none" stroke="#000000" stroke-width="0.709" stroke-miterlimit="10" x1="1558.97" y1="243.455" x2="1558.97" y2="1945.996"/>
	
		<line fill="none" stroke="#000000" stroke-width="0.709" stroke-miterlimit="10" x1="1233.72" y1="1107.396" x2="1558.507" y2="1107.396"/>
	
		<line fill="none" stroke="#000000" stroke-width="0.709" stroke-miterlimit="10" x1="1558.667" y1="1945.996" x2="890.151" y2="1945.996"/>
	<path fill="none" stroke="#000000" stroke-width="0.709" stroke-miterlimit="10" d="M973.845,1359.302
		c-74.461,256.147-79.889,449.089-83.692,586.693"/>
	
		<line fill="none" stroke="#000000" stroke-width="2.835" stroke-miterlimit="10" x1="1080.556" y1="919.878" x2="1080.556" y2="1916.137"/>
	<path d="M1066.293,938.054c0,0.468,0.233,0.926,0.656,1.197c0.659,0.421,1.536,0.226,1.957-0.434l11.649-18.291l11.648,18.291
		c0.42,0.66,1.298,0.855,1.957,0.434c0.658-0.421,0.85-1.302,0.435-1.957l-12.845-20.168c-0.26-0.408-0.712-0.656-1.195-0.656
		c-0.485,0-0.937,0.248-1.196,0.656l-12.845,20.168C1066.365,937.529,1066.293,937.794,1066.293,938.054
		C1066.293,938.522,1066.293,937.794,1066.293,938.054"/>
	<path d="M1066.293,1897.961c0-0.468,0.233-0.926,0.656-1.197c0.659-0.421,1.536-0.226,1.957,0.435l11.649,18.291l11.648-18.291
		c0.42-0.66,1.298-0.855,1.957-0.435c0.658,0.422,0.85,1.303,0.435,1.957l-12.845,20.168c-0.26,0.408-0.712,0.656-1.195,0.656
		c-0.485,0-0.937-0.248-1.196-0.656l-12.845-20.168C1066.365,1898.487,1066.293,1898.221,1066.293,1897.961
		C1066.293,1897.494,1066.293,1898.221,1066.293,1897.961"/>
	<text transform="matrix(-6.123234e-17 -1 1 -6.123234e-17 1068.9043 1883.0688)"><tspan x="0" y="0" font-family="'Calibri'" font-size="28.3465">F</tspan><tspan x="13.024" y="0" font-family="'Calibri'" font-size="28.3465">R</tspan><tspan x="28.16" y="0" font-family="'Calibri'" font-size="28.3465">ONT BODICE B</tspan><tspan x="195.001" y="0" font-family="'Calibri'" font-size="28.3465">L</tspan><tspan x="206.322" y="0" font-family="'Calibri'" font-size="28.3465">OCK</tspan></text>
	
		<text transform="matrix(-6.123234e-17 -1 1 -6.123234e-17 1107.7676 1083.1021)" fill="#9A9899" font-family="'Calibri'" font-size="28.3465">BCSizing ©</text>
	<path fill="none" stroke="#000000" stroke-width="0.709" stroke-miterlimit="10" d="M1353.924,80.471
		c56.568,177.55,205.141,162.677,205.141,162.677"/>
	
		<line fill="none" stroke="#000000" stroke-width="0.709" stroke-miterlimit="10" x1="1234.322" y1="851.2" x2="1189.434" y2="142.417"/>
	
		<line fill="none" stroke="#000000" stroke-width="0.709" stroke-miterlimit="10" x1="1353.924" y1="80.471" x2="1189.005" y2="142.579"/>
	
		<line fill="none" stroke="#000000" stroke-width="0.709" stroke-miterlimit="10" x1="1233.938" y1="851.392" x2="886.592" y2="231.926"/>
	
		<line fill="none" stroke="#000000" stroke-width="0.709" stroke-miterlimit="10" x1="886.592" y1="231.926" x2="764.822" y2="359.316"/>
	
		<line fill="none" stroke="#000000" stroke-width="0.709" stroke-miterlimit="10" x1="1017.38" y1="465.041" x2="877.429" y2="532.264"/>
	<path fill="none" stroke="#000000" stroke-width="0.709" stroke-miterlimit="10" d="M764.822,359.316
		c39.557,52.208,112.607,172.948,112.607,172.948"/>
	<text transform="matrix(1 0 0 1 1531.1865 595.4985)" font-family="'Calibri'" font-size="36">C</text>
	<text transform="matrix(1 0 0 1 1531.1865 638.6987)" font-family="'Calibri'" font-size="36">F</text>
	<text transform="matrix(-6.123234e-17 -1 1 -6.123234e-17 1068.9043 1271.645)" font-family="'Calibri'" font-size="24">MRUK10E - MRUS6E - MREU36E</text>
</g>
</svg>
