<?xml version="1.0" encoding="utf-8"?>
<!-- Generator: Adobe Illustrator 15.0.0, SVG Export Plug-In . SVG Version: 6.00 Build 0)  -->
<!DOCTYPE svg PUBLIC "-//W3C//DTD SVG 1.1//EN" "http://www.w3.org/Graphics/SVG/1.1/DTD/svg11.dtd">
<svg version="1.1" id="Layer_1" xmlns="http://www.w3.org/2000/svg" xmlns:xlink="http://www.w3.org/1999/xlink" x="0px" y="0px"
	 width="1729.13px" height="2369.76px" viewBox="0 0 1729.13 2369.76" enable-background="new 0 0 1729.13 2369.76"
	 xml:space="preserve">
<line fill="none" stroke="#000000" stroke-width="0.7087" stroke-miterlimit="10" x1="822" y1="2014.928" x2="822" y2="393.792"/>
<line fill="none" stroke="#000000" stroke-width="0.7087" stroke-miterlimit="10" x1="355.025" y1="739.591" x2="1261.835" y2="739.591"/>
<line fill="none" stroke="#000000" stroke-width="0.7087" stroke-miterlimit="10" x1="444.275" y1="1307.375" x2="1172.665" y2="1307.375"/>
<line fill="none" stroke="#000000" stroke-width="0.7087" stroke-miterlimit="10" x1="366.365" y1="812.515" x2="1250.06" y2="812.515"/>
<line fill="none" stroke="#000000" stroke-width="0.7087" stroke-miterlimit="10" x1="355.025" y1="739.5" x2="444.275" y2="1307.375"/>
<line fill="none" stroke="#000000" stroke-width="0.7087" stroke-miterlimit="10" x1="1261.835" y1="739.138" x2="1172.665" y2="1307.375"/>
<line fill="none" stroke="#000000" stroke-width="0.7087" stroke-miterlimit="10" x1="551.084" y1="2015.347" x2="1066.339" y2="2015.347"/>
<line fill="none" stroke="#000000" stroke-width="0.7087" stroke-miterlimit="10" x1="551.085" y1="2015.347" x2="444.275" y2="1307.375"/>
<line fill="none" stroke="#000000" stroke-width="0.7087" stroke-miterlimit="10" x1="1066.339" y1="2015.347" x2="1172.665" y2="1307.375"/>
<line fill="none" stroke="#000000" stroke-width="0.7087" stroke-miterlimit="10" stroke-dasharray="0.8504" x1="808.47" y1="740.188" x2="808.47" y2="2015.347"/>
<g>
	<g>
		
			<line fill="none" stroke="#000000" stroke-width="2.8347" stroke-miterlimit="10" x1="714.197" y1="930.491" x2="714.197" y2="1939.038"/>
		<g>
			<path d="M699.935,948.667c0,0.468,0.232,0.926,0.656,1.197c0.659,0.42,1.537,0.226,1.958-0.435l11.648-18.291l11.648,18.291
				c0.421,0.661,1.298,0.855,1.958,0.435c0.659-0.421,0.85-1.303,0.435-1.958l-12.845-20.167c-0.26-0.409-0.711-0.656-1.196-0.656
				s-0.936,0.248-1.196,0.656l-12.845,20.167C700.007,948.142,699.935,948.407,699.935,948.667
				C699.935,949.135,699.935,948.407,699.935,948.667z"/>
		</g>
		<g>
			<path d="M699.935,1920.862c0-0.468,0.232-0.926,0.656-1.197c0.659-0.421,1.537-0.226,1.958,0.435l11.648,18.291l11.648-18.291
				c0.421-0.66,1.298-0.855,1.958-0.435c0.659,0.421,0.85,1.303,0.435,1.957l-12.845,20.168c-0.26,0.408-0.711,0.656-1.196,0.656
				s-0.936-0.248-1.196-0.656l-12.845-20.168C700.007,1921.387,699.935,1921.123,699.935,1920.862
				C699.935,1920.395,699.935,1921.123,699.935,1920.862z"/>
		</g>
	</g>
</g>
<text transform="matrix(0 -1 1 0 693.6162 1357.8027)" font-family="'Calibri'" font-size="28.3465">MRUK10B - MRUSA6B - MREU36B</text>
<text transform="matrix(0 -1 1 0 745.1968 1101.4619)" fill="#9A9899" font-family="'Calibri'" font-size="28.3465">BCSizing ©</text>
<text transform="matrix(0 -1 1 0 699.6182 1890.7793)" font-family="'Calibri'" font-size="28.3465">SLEEVE</text>
<text transform="matrix(0 -1 1 0 740.2183 1891.4941)" font-family="'Calibri'" font-size="28.3465">WOVEN BODICE BLOCK</text>
<text transform="matrix(1 0 0 1 936.0869 1297.4912)" font-family="'Calibri'" font-size="28.3465">ELBOW</text>
<text transform="matrix(1 0 0 1 936.0869 801.4316)" font-family="'Calibri'" font-size="28.3465">BICEP</text>
<path fill="none" stroke="#000000" stroke-width="0.7087" stroke-miterlimit="10" d="M822.037,393.389
	c-195.192,0.224-276.782,284.939-467.498,346.373"/>
<path fill="none" stroke="#000000" stroke-width="0.7087" stroke-miterlimit="10" d="M822.037,393.389
	c159.357,2.362,255.028,310.367,439.727,346.203"/>
</svg>
