<?xml version="1.0" encoding="utf-8"?>
<!-- Generator: Adobe Illustrator 15.0.0, SVG Export Plug-In . SVG Version: 6.00 Build 0)  -->
<!DOCTYPE svg PUBLIC "-//W3C//DTD SVG 1.1//EN" "http://www.w3.org/Graphics/SVG/1.1/DTD/svg11.dtd">
<svg version="1.1" id="Layer_1" xmlns="http://www.w3.org/2000/svg" xmlns:xlink="http://www.w3.org/1999/xlink" x="0px" y="0px"
	 width="1683.78px" height="2383.94px" viewBox="0 0 1683.78 2383.94" enable-background="new 0 0 1683.78 2383.94"
	 xml:space="preserve">
<g>
	<g>
		<g>
			
				<line fill="none" stroke="#000000" stroke-width="2.835" stroke-miterlimit="10" x1="514.579" y1="956.666" x2="514.579" y2="1904.254"/>
			<g>
				<path d="M500.315,974.844c0,0.468,0.232,0.926,0.656,1.197c0.659,0.421,1.537,0.226,1.958-0.435l11.65-18.293l11.65,18.293
					c0.421,0.66,1.299,0.855,1.958,0.435c0.659-0.42,0.85-1.302,0.435-1.958l-12.846-20.17c-0.261-0.408-0.712-0.656-1.196-0.656
					s-0.936,0.248-1.196,0.656l-12.846,20.17C500.388,974.319,500.315,974.583,500.315,974.844
					C500.315,975.312,500.315,974.583,500.315,974.844z"/>
			</g>
			<g>
				<path d="M500.315,1886.077c0-0.469,0.232-0.927,0.656-1.198c0.659-0.421,1.537-0.226,1.958,0.435l11.65,18.294l11.65-18.294
					c0.421-0.66,1.299-0.855,1.958-0.435c0.659,0.421,0.85,1.303,0.435,1.958l-12.846,20.17c-0.261,0.408-0.712,0.656-1.196,0.656
					s-0.936-0.248-1.196-0.656l-12.846-20.17C500.388,1886.601,500.315,1886.336,500.315,1886.077
					C500.315,1885.608,500.315,1886.336,500.315,1886.077z"/>
			</g>
		</g>
	</g>
	<text transform="matrix(-6.123234e-17 -1 1 -6.123234e-17 501.3223 1856.936)"><tspan x="0" y="0" font-family="'Calibri'" font-size="24">B</tspan><tspan x="12.838" y="0" font-family="'Calibri'" font-size="24">A</tspan><tspan x="26.557" y="0" font-family="'Calibri'" font-size="24">CK BODICE B</tspan><tspan x="150.002" y="0" font-family="'Calibri'" font-size="24">L</tspan><tspan x="159.588" y="0" font-family="'Calibri'" font-size="24">OCK</tspan></text>
	
		<text transform="matrix(-6.123234e-17 -1 1 -6.123234e-17 539.3857 1095.3442)" fill="#9A9899" font-family="'Calibri'" font-size="24">BCSizing ©</text>
	<text transform="matrix(1.0506 0 0 1 67.4985 506.3501)" fill="#010101" font-family="'Calibri'" font-size="24">XB</text>
	<text transform="matrix(1.0506 0 0 1 67.4985 1104.166)" fill="#010101" font-family="'Calibri'" font-size="24">UB</text>
	<text transform="matrix(1.0506 0 0 1 67.4985 1353.7905)" fill="#010101" font-family="'Calibri'" font-size="24">WL</text>
	<text transform="matrix(1.0506 0 0 1 67.4985 1941.9585)" fill="#010101" font-family="'Calibri'" font-size="24">HL</text>
	<text transform="matrix(1 0 0 1 67.4985 908.9487)" font-family="'Calibri'" font-size="24">BL</text>
	
		<line fill="none" stroke="#000000" stroke-width="0.709" stroke-miterlimit="10" x1="56.006" y1="1366.535" x2="641.08" y2="1366.535"/>
	
		<line fill="none" stroke="#000000" stroke-width="0.709" stroke-miterlimit="10" x1="56.008" y1="516.059" x2="575.469" y2="516.059"/>
	<path fill="none" stroke="#000000" stroke-width="0.709" stroke-miterlimit="10" d="M590.482,325.382
		c-7.293,40.661-15.424,190.677-15.424,190.677"/>
	
		<line fill="none" stroke="#000000" stroke-width="0.709" stroke-miterlimit="10" x1="641.081" y1="1366.639" x2="657.152" y2="858.905"/>
	
		<line fill="none" stroke="#000000" stroke-width="0.709" stroke-miterlimit="10" x1="282.319" y1="1366.707" x2="323.819" y2="915.716"/>
	
		<line fill="none" stroke="#000000" stroke-width="0.709" stroke-miterlimit="10" x1="323.819" y1="915.716" x2="366.152" y2="1366.624"/>
	<line fill="none" stroke="#000000" stroke-width="0.709" stroke-miterlimit="10" x1="56" y1="915.716" x2="655.574" y2="915.716"/>
	<path fill="none" stroke="#000000" stroke-width="0.709" stroke-miterlimit="10" d="M261.006,201.489
		c-13.43,40.5-204.998,36.97-204.998,36.97"/>
	<path fill="none" stroke="#000000" stroke-width="0.709" stroke-miterlimit="10" d="M575.02,515.909
		c0,0-19.707,349.027,82.133,343.125"/>
	
		<line fill="none" stroke="#000000" stroke-width="0.709" stroke-miterlimit="10" x1="56.289" y1="1953.32" x2="724.805" y2="1953.32"/>
	<path fill="none" stroke="#000000" stroke-width="0.709" stroke-miterlimit="10" d="M641.081,1366.639
		c74.637,256.142,80.08,449.079,83.892,586.681"/>
	
		<line fill="none" stroke="#000000" stroke-width="0.709" stroke-miterlimit="10" x1="323.819" y1="915.716" x2="323.819" y2="1953.32"/>
	
		<line fill="none" stroke="#000000" stroke-width="0.709" stroke-miterlimit="10" x1="366.152" y1="1366.624" x2="323.819" y2="1764.263"/>
	
		<line fill="none" stroke="#000000" stroke-width="0.709" stroke-miterlimit="10" x1="323.819" y1="1764.263" x2="282.319" y2="1366.706"/>
	<line fill="none" stroke="#000000" stroke-width="0.709" stroke-miterlimit="10" x1="56" y1="237.393" x2="56" y2="1953.32"/>
	
		<line fill="none" stroke="#000000" stroke-width="0.709" stroke-miterlimit="10" x1="56" y1="1114.694" x2="648.143" y2="1114.694"/>
	
		<line fill="none" stroke="#000000" stroke-width="0.709" stroke-miterlimit="10" x1="261.006" y1="201.489" x2="590.849" y2="325.705"/>
	<text transform="matrix(1 0 0 1 67.499 687.5093)" font-family="'Calibri'" font-size="36">C</text>
	<text transform="matrix(1 0 0 1 67.499 730.7095)" font-family="'Calibri'" font-size="36">B</text>
	<text transform="matrix(-6.123234e-17 -1 1 -6.123234e-17 501.3223 1304.1763)" font-family="'Calibri'" font-size="24">MRUK10F - MRUS6F - MREU36F</text>
</g>
<g>
	<text transform="matrix(1.0506 0 0 1 1553.1221 836.2222)" fill="#010101" font-family="'Calibri'" font-size="24">BL</text>
	<text transform="matrix(1.0506 0 0 1 1548.2812 1360.8618)" fill="#010101" font-family="'Calibri'" font-size="24">WL</text>
	<text transform="matrix(1.0506 0 0 1 1556.4756 381.1099)" fill="#010101" font-family="'Calibri'" font-size="24">XF</text>
	<text transform="matrix(1 0 0 1.0358 1553.1221 1946.1147)" fill="#010101" font-family="'Calibri'" font-size="23.1713">HL</text>
	<text transform="matrix(1.0506 0 0 1 1548.2725 1105.6167)" fill="#010101" font-family="'Calibri'" font-size="24">UB</text>
	
		<line fill="none" stroke="#000000" stroke-width="0.709" stroke-miterlimit="10" x1="1247.87" y1="1953.103" x2="1247.871" y2="844.28"/>
	
		<line fill="none" stroke="#000000" stroke-width="0.709" stroke-miterlimit="10" x1="1586.439" y1="844.494" x2="1247.871" y2="844.493"/>
	
		<line fill="none" stroke="#000000" stroke-width="0.709" stroke-miterlimit="10" x1="1586.367" y1="387.981" x2="1228.578" y2="387.98"/>
	
		<line fill="none" stroke="#000000" stroke-width="0.709" stroke-miterlimit="10" x1="1001.946" y1="1366.376" x2="725.996" y2="939.674"/>
	
		<line fill="none" stroke="#000000" stroke-width="0.709" stroke-miterlimit="10" x1="756.208" y1="986.851" x2="1247.871" y2="844.28"/>
	
		<ellipse fill="none" stroke="#000000" stroke-width="0.283" stroke-miterlimit="10" stroke-dasharray="0.567,0.567" cx="1248.009" cy="843.495" rx="289.653" ry="289.322"/>
	<path fill="none" stroke="#000000" stroke-width="0.709" stroke-miterlimit="10" d="M879.556,524.014
		c152.654,279.711-153.561,415.659-153.561,415.659"/>
	
		<line fill="none" stroke="#000000" stroke-width="0.709" stroke-miterlimit="10" x1="1290.207" y1="1366.499" x2="1248.031" y2="844.253"/>
	
		<line fill="none" stroke="#000000" stroke-width="0.709" stroke-miterlimit="10" x1="1247.873" y1="844.241" x2="1205.531" y2="1366.434"/>
	
		<line fill="none" stroke="#000000" stroke-width="0.709" stroke-miterlimit="10" x1="1205.532" y1="1366.434" x2="1247.59" y2="1650.18"/>
	
		<line fill="none" stroke="#000000" stroke-width="0.709" stroke-miterlimit="10" x1="1247.593" y1="1650.18" x2="1290.206" y2="1366.783"/>
	
		<line fill="none" stroke="#000000" stroke-width="0.709" stroke-miterlimit="10" x1="866.286" y1="1154.711" x2="1247.871" y2="1114.671"/>
	
		<line fill="none" stroke="#000000" stroke-width="0.709" stroke-miterlimit="10" x1="1001.635" y1="1366.499" x2="1586.434" y2="1366.499"/>
	
		<line fill="none" stroke="#000000" stroke-width="0.709" stroke-miterlimit="10" x1="1586.76" y1="222.259" x2="1586.76" y2="1953.272"/>
	
		<line fill="none" stroke="#000000" stroke-width="0.709" stroke-miterlimit="10" x1="1247.871" y1="1114.672" x2="1586.297" y2="1114.672"/>
	
		<line fill="none" stroke="#000000" stroke-width="0.709" stroke-miterlimit="10" x1="1586.457" y1="1953.272" x2="917.94" y2="1953.272"/>
	<path fill="none" stroke="#000000" stroke-width="0.709" stroke-miterlimit="10" d="M1001.635,1366.579
		c-74.461,256.148-79.89,449.089-83.693,586.693"/>
	
		<line fill="none" stroke="#000000" stroke-width="2.835" stroke-miterlimit="10" x1="1097.996" y1="914.911" x2="1097.996" y2="1914.956"/>
	<path d="M1083.734,933.086c0,0.468,0.233,0.926,0.656,1.197c0.659,0.421,1.536,0.226,1.957-0.434l11.648-18.291l11.649,18.291
		c0.42,0.66,1.298,0.855,1.957,0.434c0.658-0.421,0.849-1.302,0.434-1.957l-12.844-20.168c-0.26-0.408-0.712-0.656-1.196-0.656
		s-0.936,0.248-1.195,0.656l-12.846,20.168C1083.807,932.561,1083.734,932.826,1083.734,933.086
		C1083.734,933.554,1083.734,932.826,1083.734,933.086"/>
	<path d="M1083.734,1896.78c0-0.468,0.233-0.926,0.656-1.196c0.659-0.421,1.536-0.227,1.957,0.434l11.648,18.291l11.649-18.291
		c0.42-0.66,1.298-0.854,1.957-0.434c0.658,0.421,0.849,1.302,0.434,1.957l-12.844,20.168c-0.26,0.408-0.712,0.655-1.196,0.655
		s-0.936-0.247-1.195-0.655l-12.846-20.168C1083.807,1897.305,1083.734,1897.041,1083.734,1896.78
		C1083.734,1896.312,1083.734,1897.041,1083.734,1896.78"/>
	<text transform="matrix(-6.123234e-17 -1 1 -6.123234e-17 1083.418 1882.0103)"><tspan x="0" y="0" font-family="'Calibri'" font-size="24">F</tspan><tspan x="11.027" y="0" font-family="'Calibri'" font-size="24">R</tspan><tspan x="23.843" y="0" font-family="'Calibri'" font-size="24">ONT BODICE B</tspan><tspan x="165.101" y="0" font-family="'Calibri'" font-size="24">L</tspan><tspan x="174.687" y="0" font-family="'Calibri'" font-size="24">OCK </tspan></text>
	
		<text transform="matrix(-6.123234e-17 -1 1 -6.123234e-17 1124.9141 1060.1548)" fill="#9A9899" font-family="'Calibri'" font-size="24">BCSizing ©</text>
	<path fill="none" stroke="#000000" stroke-width="0.709" stroke-miterlimit="10" d="M1381.682,59.184
		c56.469,177.728,204.778,162.84,204.778,162.84"/>
	
		<line fill="none" stroke="#000000" stroke-width="0.709" stroke-miterlimit="10" x1="1247.995" y1="844.351" x2="1217.223" y2="121.13"/>
	
		<line fill="none" stroke="#000000" stroke-width="0.709" stroke-miterlimit="10" x1="1381.715" y1="59.184" x2="1216.793" y2="121.291"/>
	
		<line fill="none" stroke="#000000" stroke-width="0.709" stroke-miterlimit="10" x1="1247.87" y1="844.494" x2="878.787" y2="221.779"/>
	
		<line fill="none" stroke="#000000" stroke-width="0.709" stroke-miterlimit="10" x1="878.787" y1="221.778" x2="762.833" y2="354.485"/>
	
		<line fill="none" stroke="#000000" stroke-width="0.709" stroke-miterlimit="10" x1="1015.332" y1="451.431" x2="879.648" y2="524.24"/>
	<path fill="none" stroke="#000000" stroke-width="0.709" stroke-miterlimit="10" d="M762.501,354.848
		c64.384,81.059,117.147,169.393,117.147,169.393"/>
	<text transform="matrix(1 0 0 1 1562.457 587.3013)" font-family="'Calibri'" font-size="36">C</text>
	<text transform="matrix(1 0 0 1 1562.457 630.5015)" font-family="'Calibri'" font-size="36">F</text>
	<text transform="matrix(-6.123234e-17 -1 1 -6.123234e-17 1083.418 1265.4321)" font-family="'Calibri'" font-size="24">MRUK10F - MRUS6F - MREU36F</text>
</g>
</svg>
