<?xml version="1.0" encoding="utf-8"?>
<!-- Generator: Adobe Illustrator 15.0.0, SVG Export Plug-In . SVG Version: 6.00 Build 0)  -->
<!DOCTYPE svg PUBLIC "-//W3C//DTD SVG 1.1//EN" "http://www.w3.org/Graphics/SVG/1.1/DTD/svg11.dtd">
<svg version="1.1" id="Layer_1" xmlns="http://www.w3.org/2000/svg" xmlns:xlink="http://www.w3.org/1999/xlink" x="0px" y="0px"
	 width="1683.78px" height="2383.94px" viewBox="0 0 1683.78 2383.94" enable-background="new 0 0 1683.78 2383.94"
	 xml:space="preserve">
<g>
	<g>
		<g>
			
				<line fill="none" stroke="#000000" stroke-width="2.835" stroke-miterlimit="10" x1="529.784" y1="978.061" x2="529.784" y2="1939.823"/>
			<g>
				<path d="M515.521,996.238c0,0.468,0.232,0.926,0.656,1.197c0.659,0.421,1.537,0.226,1.958-0.435l11.65-18.293l11.65,18.293
					c0.421,0.66,1.299,0.855,1.958,0.435c0.659-0.42,0.85-1.302,0.435-1.958l-12.846-20.17c-0.261-0.408-0.712-0.656-1.196-0.656
					s-0.936,0.248-1.196,0.656l-12.846,20.17C515.593,995.713,515.521,995.978,515.521,996.238
					C515.521,996.706,515.521,995.978,515.521,996.238z"/>
			</g>
			<g>
				<path d="M515.521,1921.645c0-0.469,0.232-0.927,0.656-1.198c0.659-0.421,1.537-0.226,1.958,0.435l11.65,18.294l11.65-18.294
					c0.421-0.66,1.299-0.855,1.958-0.435c0.659,0.421,0.85,1.303,0.435,1.958l-12.846,20.17c-0.261,0.408-0.712,0.656-1.196,0.656
					s-0.936-0.248-1.196-0.656l-12.846-20.17C515.593,1922.169,515.521,1921.905,515.521,1921.645
					C515.521,1921.176,515.521,1921.905,515.521,1921.645z"/>
			</g>
		</g>
	</g>
	<text transform="matrix(-6.123234e-17 -1 1 -6.123234e-17 516.499 1902.4644)"><tspan x="0" y="0" font-family="'Calibri'" font-size="24">B</tspan><tspan x="12.839" y="0" font-family="'Calibri'" font-size="24">A</tspan><tspan x="26.558" y="0" font-family="'Calibri'" font-size="24">CK BODICE B</tspan><tspan x="150.003" y="0" font-family="'Calibri'" font-size="24">L</tspan><tspan x="159.589" y="0" font-family="'Calibri'" font-size="24">OCK</tspan></text>
	
		<text transform="matrix(-6.123234e-17 -1 1 -6.123234e-17 553.4355 1119.873)" fill="#9A9899" font-family="'Calibri'" font-size="24">BCSizing ©</text>
	<text transform="matrix(1.0506 0 0 1 93.6787 542.4321)" fill="#010101" font-family="'Calibri'" font-size="24">XB</text>
	<text transform="matrix(1.0506 0 0 1 94.4351 1141.3521)" fill="#010101" font-family="'Calibri'" font-size="24">UB</text>
	<text transform="matrix(1.0506 0 0 1 93.6787 1390.856)" fill="#010101" font-family="'Calibri'" font-size="24">WL</text>
	<text transform="matrix(1.0506 0 0 1 93.6787 1977.5601)" fill="#010101" font-family="'Calibri'" font-size="24">HL</text>
	<text transform="matrix(1 0 0 1 96.5288 940.6001)" font-family="'Calibri'" font-size="24">BL</text>
	
		<line fill="none" stroke="#000000" stroke-width="0.709" stroke-miterlimit="10" x1="85.33" y1="1399.557" x2="670.404" y2="1399.557"/>
	
		<line fill="none" stroke="#000000" stroke-width="0.709" stroke-miterlimit="10" x1="85.333" y1="549.082" x2="604.793" y2="549.082"/>
	<path fill="none" stroke="#000000" stroke-width="0.709" stroke-miterlimit="10" d="M619.807,358.405
		c-7.293,40.662-15.424,190.677-15.424,190.677"/>
	
		<line fill="none" stroke="#000000" stroke-width="0.709" stroke-miterlimit="10" x1="670.405" y1="1399.662" x2="686.477" y2="891.927"/>
	
		<line fill="none" stroke="#000000" stroke-width="0.709" stroke-miterlimit="10" x1="311.644" y1="1399.729" x2="353.144" y2="948.739"/>
	
		<line fill="none" stroke="#000000" stroke-width="0.709" stroke-miterlimit="10" x1="353.144" y1="948.739" x2="395.477" y2="1399.647"/>
	
		<line fill="none" stroke="#000000" stroke-width="0.709" stroke-miterlimit="10" x1="85.325" y1="948.739" x2="684.898" y2="948.739"/>
	<path fill="none" stroke="#000000" stroke-width="0.709" stroke-miterlimit="10" d="M290.33,234.511
		c-13.43,40.5-204.998,36.971-204.998,36.971"/>
	<path fill="none" stroke="#000000" stroke-width="0.709" stroke-miterlimit="10" d="M604.344,548.932
		c0,0-19.707,349.027,82.133,343.125"/>
	
		<line fill="none" stroke="#000000" stroke-width="0.709" stroke-miterlimit="10" x1="85.613" y1="1986.342" x2="754.129" y2="1986.342"/>
	<path fill="none" stroke="#000000" stroke-width="0.709" stroke-miterlimit="10" d="M670.405,1399.662
		c74.637,256.142,80.08,449.079,83.892,586.681"/>
	
		<line fill="none" stroke="#000000" stroke-width="0.709" stroke-miterlimit="10" x1="353.144" y1="948.739" x2="353.144" y2="1986.342"/>
	
		<line fill="none" stroke="#000000" stroke-width="0.709" stroke-miterlimit="10" x1="395.477" y1="1399.647" x2="353.144" y2="1797.286"/>
	
		<line fill="none" stroke="#000000" stroke-width="0.709" stroke-miterlimit="10" x1="353.144" y1="1797.286" x2="311.644" y2="1399.728"/>
	
		<line fill="none" stroke="#000000" stroke-width="0.709" stroke-miterlimit="10" x1="85.325" y1="270.416" x2="85.325" y2="1986.342"/>
	
		<line fill="none" stroke="#000000" stroke-width="0.709" stroke-miterlimit="10" x1="85.325" y1="1147.717" x2="677.467" y2="1147.717"/>
	
		<line fill="none" stroke="#000000" stroke-width="0.709" stroke-miterlimit="10" x1="290.33" y1="234.511" x2="620.173" y2="358.728"/>
	<text transform="matrix(1 0 0 1 93.6787 729.0317)" font-family="'Calibri'" font-size="36">C</text>
	<text transform="matrix(1 0 0 1 93.6787 772.2319)" font-family="'Calibri'" font-size="36">B</text>
	<text transform="matrix(-6.123234e-17 -1 1 -6.123234e-17 516.499 1333.8813)" font-family="'Calibri'" font-size="24">MRUK10B - MRUS6B - MREU36B</text>
</g>
<g>
	<text transform="matrix(1.0506 0 0 1 1442.1299 942.6079)" fill="#010101" font-family="'Calibri'" font-size="24">BL</text>
	<text transform="matrix(1.0506 0 0 1 1435.0703 1393.9038)" fill="#010101" font-family="'Calibri'" font-size="24">WL</text>
	<text transform="matrix(1.0506 0 0 1 1440.7432 555.9199)" fill="#010101" font-family="'Calibri'" font-size="24">XF</text>
	<text transform="matrix(1 0 0 1.0358 1440.7383 1978.7964)" fill="#010101" font-family="'Calibri'" font-size="23.1713">HL</text>
	<text transform="matrix(1.0506 0 0 1 1435.0576 1138.5835)" fill="#010101" font-family="'Calibri'" font-size="24">UB</text>
	
		<ellipse fill="none" stroke="#000000" stroke-width="0.283" stroke-miterlimit="10" stroke-dasharray="0.567,0.567" cx="1206.104" cy="947.958" rx="201.457" ry="201.034"/>
	
		<line fill="none" stroke="#000000" stroke-width="0.709" stroke-miterlimit="10" x1="888.428" y1="1399.465" x2="1473.227" y2="1399.465"/>
	
		<line fill="none" stroke="#000000" stroke-width="0.709" stroke-miterlimit="10" x1="1247.221" y1="1399.625" x2="1205.65" y2="948.56"/>
	
		<line fill="none" stroke="#000000" stroke-width="0.709" stroke-miterlimit="10" x1="1205.65" y1="948.56" x2="1163.387" y2="1399.543"/>
	
		<line fill="none" stroke="#000000" stroke-width="0.709" stroke-miterlimit="10" x1="1104.039" y1="295.578" x2="1205.65" y2="948.559"/>
	<path fill="none" stroke="#000000" stroke-width="0.709" stroke-miterlimit="10" d="M1268.383,233.74
		c56.568,178.944,205.139,163.954,205.139,163.954"/>
	
		<line fill="none" stroke="#000000" stroke-width="0.709" stroke-miterlimit="10" x1="1146.137" y1="562.734" x2="1473.553" y2="562.734"/>
	
		<line fill="none" stroke="#000000" stroke-width="0.709" stroke-miterlimit="10" x1="1205.658" y1="948.648" x2="1473.227" y2="948.648"/>
	
		<line fill="none" stroke="#000000" stroke-width="0.709" stroke-miterlimit="10" x1="1473.553" y1="398.003" x2="1473.553" y2="1986.239"/>
	
		<line fill="none" stroke="#000000" stroke-width="0.709" stroke-miterlimit="10" x1="1206.537" y1="1147.639" x2="1473.09" y2="1147.639"/>
	
		<line fill="none" stroke="#000000" stroke-width="0.709" stroke-miterlimit="10" x1="888.428" y1="1399.545" x2="793.649" y2="899.694"/>
	<path fill="none" stroke="#000000" stroke-width="0.709" stroke-miterlimit="10" d="M891.113,633.313
		c105.131,252.66-97.465,266.381-97.465,266.381"/>
	
		<line fill="none" stroke="#000000" stroke-width="0.709" stroke-miterlimit="10" x1="841.096" y1="1151.684" x2="1206.537" y2="1147.639"/>
	
		<line fill="none" stroke="#000000" stroke-width="0.709" stroke-miterlimit="10" x1="1473.25" y1="1986.239" x2="804.734" y2="1986.239"/>
	<path fill="none" stroke="#000000" stroke-width="0.709" stroke-miterlimit="10" d="M888.428,1399.545
		c-74.461,256.147-79.889,449.09-83.693,586.693"/>
	
		<line fill="none" stroke="#000000" stroke-width="0.709" stroke-miterlimit="10" x1="1205.689" y1="948.648" x2="1205.689" y2="1986.239"/>
	
		<line fill="none" stroke="#000000" stroke-width="0.709" stroke-miterlimit="10" x1="1163.387" y1="1399.543" x2="1205.689" y2="1683.774"/>
	
		<line fill="none" stroke="#000000" stroke-width="0.709" stroke-miterlimit="10" x1="1205.689" y1="1683.774" x2="1247.221" y2="1399.602"/>
	
		<line fill="none" stroke="#000000" stroke-width="0.709" stroke-miterlimit="10" x1="1268.781" y1="233.74" x2="1103.83" y2="295.765"/>
	
		<line fill="none" stroke="#000000" stroke-width="0.709" stroke-miterlimit="10" x1="804.309" y1="955.73" x2="1205.65" y2="948.56"/>
	
		<line fill="none" stroke="#000000" stroke-width="0.709" stroke-miterlimit="10" x1="939.717" y1="343.874" x2="1205.699" y2="948.67"/>
	
		<line fill="none" stroke="#000000" stroke-width="0.709" stroke-miterlimit="10" x1="939.717" y1="343.874" x2="797.496" y2="445.367"/>
	
		<line fill="none" stroke="#000000" stroke-width="0.709" stroke-miterlimit="10" x1="1048.35" y1="591.497" x2="890.85" y2="633.492"/>
	<path fill="none" stroke="#000000" stroke-width="0.709" stroke-miterlimit="10" d="M797.496,445.367
		c0,0,84.267,161.171,93.652,188.154"/>
	
		<line fill="none" stroke="#000000" stroke-width="2.835" stroke-miterlimit="10" x1="998.831" y1="971.251" x2="998.831" y2="1940.657"/>
	<path d="M984.569,989.427c0,0.468,0.233,0.926,0.656,1.197c0.659,0.421,1.536,0.226,1.957-0.434l11.648-18.291l11.648,18.291
		c0.421,0.66,1.299,0.855,1.958,0.434c0.658-0.421,0.849-1.302,0.434-1.957l-12.844-20.168c-0.26-0.408-0.712-0.656-1.196-0.656
		s-0.936,0.248-1.195,0.656l-12.846,20.168C984.642,988.902,984.569,989.167,984.569,989.427
		C984.569,989.895,984.569,989.167,984.569,989.427"/>
	<path d="M984.569,1922.48c0-0.468,0.233-0.926,0.656-1.196c0.659-0.421,1.536-0.227,1.957,0.434l11.648,18.291l11.648-18.291
		c0.421-0.66,1.299-0.854,1.958-0.434c0.658,0.421,0.849,1.302,0.434,1.957l-12.844,20.168c-0.26,0.408-0.712,0.656-1.196,0.656
		s-0.936-0.248-1.195-0.656l-12.846-20.168C984.642,1923.005,984.569,1922.741,984.569,1922.48
		C984.569,1922.012,984.569,1922.741,984.569,1922.48"/>
	<text transform="matrix(-6.123234e-17 -1 1 -6.123234e-17 986.8809 1904.1177)"><tspan x="0" y="0" font-family="'Calibri'" font-size="24">F</tspan><tspan x="11.027" y="0" font-family="'Calibri'" font-size="24">R</tspan><tspan x="23.843" y="0" font-family="'Calibri'" font-size="24">ONT BODICE B</tspan><tspan x="165.101" y="0" font-family="'Calibri'" font-size="24">L</tspan><tspan x="174.687" y="0" font-family="'Calibri'" font-size="24">OCK</tspan></text>
	
		<text transform="matrix(-6.123234e-17 -1 1 -6.123234e-17 1028.0889 1116.8706)" fill="#9A9899" font-family="'Calibri'" font-size="24">BCSizing ©</text>
	<text transform="matrix(1 0 0 1 1442.1309 713.8169)" font-family="'Calibri'" font-size="36">C</text>
	<text transform="matrix(1 0 0 1 1442.1309 757.0171)" font-family="'Calibri'" font-size="36">F</text>
	<text transform="matrix(-6.123234e-17 -1 1 -6.123234e-17 986.8809 1324.9497)" font-family="'Calibri'" font-size="24">MRUK10B - MRUS6B - MREU36B</text>
</g>
</svg>
