<?xml version="1.0" encoding="utf-8"?>
<!-- Generator: Adobe Illustrator 15.0.0, SVG Export Plug-In . SVG Version: 6.00 Build 0)  -->
<!DOCTYPE svg PUBLIC "-//W3C//DTD SVG 1.1//EN" "http://www.w3.org/Graphics/SVG/1.1/DTD/svg11.dtd">
<svg version="1.1" id="Layer_1" xmlns="http://www.w3.org/2000/svg" xmlns:xlink="http://www.w3.org/1999/xlink" x="0px" y="0px"
	 width="1729.13px" height="2369.76px" viewBox="0 0 1729.13 2369.76" enable-background="new 0 0 1729.13 2369.76"
	 xml:space="preserve">
<g>
	
		<rect x="0.004" y="144.999" fill="none" stroke="#D1D3D4" stroke-width="0.2835" stroke-miterlimit="10" width="1700.789" height="28.347"/>
	
		<rect x="0.004" y="31.612" fill="none" stroke="#D1D3D4" stroke-width="0.2835" stroke-miterlimit="10" width="1700.789" height="28.347"/>
	
		<rect x="0.004" y="59.958" fill="none" stroke="#D1D3D4" stroke-width="0.2835" stroke-miterlimit="10" width="1700.789" height="28.347"/>
	
		<rect x="0.004" y="88.305" fill="none" stroke="#D1D3D4" stroke-width="0.2835" stroke-miterlimit="10" width="1700.789" height="28.347"/>
	
		<rect x="0.004" y="116.652" fill="none" stroke="#D1D3D4" stroke-width="0.2835" stroke-miterlimit="10" width="1700.789" height="28.347"/>
	
		<rect x="0.004" y="286.731" fill="none" stroke="#D1D3D4" stroke-width="0.2835" stroke-miterlimit="10" width="1700.789" height="28.347"/>
	
		<rect x="0.004" y="173.345" fill="none" stroke="#D1D3D4" stroke-width="0.2835" stroke-miterlimit="10" width="1700.789" height="28.347"/>
	
		<rect x="0.004" y="201.691" fill="none" stroke="#D1D3D4" stroke-width="0.2835" stroke-miterlimit="10" width="1700.789" height="28.347"/>
	
		<rect x="0.004" y="230.038" fill="none" stroke="#D1D3D4" stroke-width="0.2835" stroke-miterlimit="10" width="1700.789" height="28.347"/>
	
		<rect x="0.004" y="258.385" fill="none" stroke="#D1D3D4" stroke-width="0.2835" stroke-miterlimit="10" width="1700.789" height="28.347"/>
	
		<rect x="0.004" y="428.465" fill="none" stroke="#D1D3D4" stroke-width="0.2835" stroke-miterlimit="10" width="1700.789" height="28.347"/>
	
		<rect x="0.004" y="315.078" fill="none" stroke="#D1D3D4" stroke-width="0.2835" stroke-miterlimit="10" width="1700.789" height="28.347"/>
	
		<rect x="0.004" y="343.425" fill="none" stroke="#D1D3D4" stroke-width="0.2835" stroke-miterlimit="10" width="1700.789" height="28.347"/>
	
		<rect x="0.004" y="371.771" fill="none" stroke="#D1D3D4" stroke-width="0.2835" stroke-miterlimit="10" width="1700.789" height="28.347"/>
	
		<rect x="0.004" y="400.118" fill="none" stroke="#D1D3D4" stroke-width="0.2835" stroke-miterlimit="10" width="1700.789" height="28.347"/>
	
		<rect x="0.004" y="570.198" fill="none" stroke="#D1D3D4" stroke-width="0.2835" stroke-miterlimit="10" width="1700.789" height="28.347"/>
	
		<rect x="0.004" y="456.812" fill="none" stroke="#D1D3D4" stroke-width="0.2835" stroke-miterlimit="10" width="1700.789" height="28.347"/>
	
		<rect x="0.004" y="485.158" fill="none" stroke="#D1D3D4" stroke-width="0.2835" stroke-miterlimit="10" width="1700.789" height="28.347"/>
	
		<rect x="0.004" y="513.505" fill="none" stroke="#D1D3D4" stroke-width="0.2835" stroke-miterlimit="10" width="1700.789" height="28.347"/>
	
		<rect x="0.004" y="541.852" fill="none" stroke="#D1D3D4" stroke-width="0.2835" stroke-miterlimit="10" width="1700.789" height="28.347"/>
	
		<rect x="0.004" y="711.932" fill="none" stroke="#D1D3D4" stroke-width="0.2835" stroke-miterlimit="10" width="1700.789" height="28.347"/>
	
		<rect x="0.004" y="598.545" fill="none" stroke="#D1D3D4" stroke-width="0.2835" stroke-miterlimit="10" width="1700.789" height="28.347"/>
	
		<rect x="0.004" y="626.892" fill="none" stroke="#D1D3D4" stroke-width="0.2835" stroke-miterlimit="10" width="1700.789" height="28.347"/>
	
		<rect x="0.004" y="655.238" fill="none" stroke="#D1D3D4" stroke-width="0.2835" stroke-miterlimit="10" width="1700.789" height="28.347"/>
	
		<rect x="0.004" y="683.585" fill="none" stroke="#D1D3D4" stroke-width="0.2835" stroke-miterlimit="10" width="1700.789" height="28.347"/>
	
		<rect x="0.004" y="853.665" fill="none" stroke="#D1D3D4" stroke-width="0.2835" stroke-miterlimit="10" width="1700.789" height="28.347"/>
	
		<rect x="0.004" y="740.278" fill="none" stroke="#D1D3D4" stroke-width="0.2835" stroke-miterlimit="10" width="1700.789" height="28.347"/>
	
		<rect x="0.004" y="768.625" fill="none" stroke="#D1D3D4" stroke-width="0.2835" stroke-miterlimit="10" width="1700.789" height="28.347"/>
	
		<rect x="0.004" y="796.972" fill="none" stroke="#D1D3D4" stroke-width="0.2835" stroke-miterlimit="10" width="1700.789" height="28.347"/>
	
		<rect x="0.004" y="825.318" fill="none" stroke="#D1D3D4" stroke-width="0.2835" stroke-miterlimit="10" width="1700.789" height="28.347"/>
	
		<rect x="0.004" y="995.398" fill="none" stroke="#D1D3D4" stroke-width="0.2835" stroke-miterlimit="10" width="1700.789" height="28.347"/>
	
		<rect x="0.004" y="882.012" fill="none" stroke="#D1D3D4" stroke-width="0.2835" stroke-miterlimit="10" width="1700.789" height="28.347"/>
	
		<rect x="0.004" y="910.358" fill="none" stroke="#D1D3D4" stroke-width="0.2835" stroke-miterlimit="10" width="1700.789" height="28.347"/>
	
		<rect x="0.004" y="938.705" fill="none" stroke="#D1D3D4" stroke-width="0.2835" stroke-miterlimit="10" width="1700.789" height="28.347"/>
	
		<rect x="0.004" y="967.052" fill="none" stroke="#D1D3D4" stroke-width="0.2835" stroke-miterlimit="10" width="1700.789" height="28.347"/>
	
		<rect x="0.004" y="1137.132" fill="none" stroke="#D1D3D4" stroke-width="0.2835" stroke-miterlimit="10" width="1700.789" height="28.347"/>
	
		<rect x="0.004" y="1023.745" fill="none" stroke="#D1D3D4" stroke-width="0.2835" stroke-miterlimit="10" width="1700.789" height="28.347"/>
	
		<rect x="0.004" y="1052.092" fill="none" stroke="#D1D3D4" stroke-width="0.2835" stroke-miterlimit="10" width="1700.789" height="28.347"/>
	
		<rect x="0.004" y="1080.438" fill="none" stroke="#D1D3D4" stroke-width="0.2835" stroke-miterlimit="10" width="1700.789" height="28.347"/>
	
		<rect x="0.004" y="1108.785" fill="none" stroke="#D1D3D4" stroke-width="0.2835" stroke-miterlimit="10" width="1700.789" height="28.347"/>
	
		<rect x="0.004" y="1278.859" fill="none" stroke="#D1D3D4" stroke-width="0.2835" stroke-miterlimit="10" width="1700.789" height="28.346"/>
	
		<rect x="0.004" y="1165.472" fill="none" stroke="#D1D3D4" stroke-width="0.2835" stroke-miterlimit="10" width="1700.789" height="28.346"/>
	
		<rect x="0.004" y="1193.817" fill="none" stroke="#D1D3D4" stroke-width="0.2835" stroke-miterlimit="10" width="1700.789" height="28.349"/>
	
		<rect x="0.004" y="1222.166" fill="none" stroke="#D1D3D4" stroke-width="0.2835" stroke-miterlimit="10" width="1700.789" height="28.346"/>
	
		<rect x="0.004" y="1250.512" fill="none" stroke="#D1D3D4" stroke-width="0.2835" stroke-miterlimit="10" width="1700.789" height="28.348"/>
	
		<rect x="0.004" y="1420.592" fill="none" stroke="#D1D3D4" stroke-width="0.2835" stroke-miterlimit="10" width="1700.789" height="28.346"/>
	
		<rect x="0.004" y="1307.205" fill="none" stroke="#D1D3D4" stroke-width="0.2835" stroke-miterlimit="10" width="1700.789" height="28.346"/>
	
		<rect x="0.004" y="1335.551" fill="none" stroke="#D1D3D4" stroke-width="0.2835" stroke-miterlimit="10" width="1700.789" height="28.348"/>
	
		<rect x="0.004" y="1363.898" fill="none" stroke="#D1D3D4" stroke-width="0.2835" stroke-miterlimit="10" width="1700.789" height="28.346"/>
	
		<rect x="0.004" y="1392.244" fill="none" stroke="#D1D3D4" stroke-width="0.2835" stroke-miterlimit="10" width="1700.789" height="28.348"/>
	
		<rect x="0.004" y="1562.326" fill="none" stroke="#D1D3D4" stroke-width="0.2835" stroke-miterlimit="10" width="1700.789" height="28.346"/>
	
		<rect x="0.004" y="1448.939" fill="none" stroke="#D1D3D4" stroke-width="0.2835" stroke-miterlimit="10" width="1700.789" height="28.346"/>
	
		<rect x="0.004" y="1477.285" fill="none" stroke="#D1D3D4" stroke-width="0.2835" stroke-miterlimit="10" width="1700.789" height="28.348"/>
	
		<rect x="0.004" y="1505.633" fill="none" stroke="#D1D3D4" stroke-width="0.2835" stroke-miterlimit="10" width="1700.789" height="28.346"/>
	
		<rect x="0.004" y="1533.979" fill="none" stroke="#D1D3D4" stroke-width="0.2835" stroke-miterlimit="10" width="1700.789" height="28.348"/>
	
		<rect x="0.003" y="1704.059" fill="none" stroke="#D1D3D4" stroke-width="0.2835" stroke-miterlimit="10" width="1700.79" height="28.346"/>
	
		<rect x="0.004" y="1590.672" fill="none" stroke="#D1D3D4" stroke-width="0.2835" stroke-miterlimit="10" width="1700.789" height="28.346"/>
	
		<rect x="0.004" y="1619.018" fill="none" stroke="#D1D3D4" stroke-width="0.2835" stroke-miterlimit="10" width="1700.789" height="28.348"/>
	
		<rect x="0.004" y="1647.365" fill="none" stroke="#D1D3D4" stroke-width="0.2835" stroke-miterlimit="10" width="1700.789" height="28.346"/>
	
		<rect x="0.004" y="1675.711" fill="none" stroke="#D1D3D4" stroke-width="0.2835" stroke-miterlimit="10" width="1700.789" height="28.348"/>
	
		<rect x="0.004" y="1845.791" fill="none" stroke="#D1D3D4" stroke-width="0.2835" stroke-miterlimit="10" width="1700.789" height="28.346"/>
	
		<rect x="0.004" y="1732.404" fill="none" stroke="#D1D3D4" stroke-width="0.2835" stroke-miterlimit="10" width="1700.789" height="28.346"/>
	
		<rect x="0.004" y="1760.75" fill="none" stroke="#D1D3D4" stroke-width="0.2835" stroke-miterlimit="10" width="1700.789" height="28.348"/>
	
		<rect x="0.004" y="1789.098" fill="none" stroke="#D1D3D4" stroke-width="0.2835" stroke-miterlimit="10" width="1700.789" height="28.346"/>
	
		<rect x="0.004" y="1817.443" fill="none" stroke="#D1D3D4" stroke-width="0.2835" stroke-miterlimit="10" width="1700.789" height="28.348"/>
	
		<rect x="0.004" y="1987.523" fill="none" stroke="#D1D3D4" stroke-width="0.2835" stroke-miterlimit="10" width="1700.789" height="28.346"/>
	
		<rect x="0.004" y="1874.137" fill="none" stroke="#D1D3D4" stroke-width="0.2835" stroke-miterlimit="10" width="1700.789" height="28.346"/>
	
		<rect x="0.004" y="1902.482" fill="none" stroke="#D1D3D4" stroke-width="0.2835" stroke-miterlimit="10" width="1700.789" height="28.348"/>
	
		<rect x="0.004" y="1930.83" fill="none" stroke="#D1D3D4" stroke-width="0.2835" stroke-miterlimit="10" width="1700.789" height="28.346"/>
	
		<rect x="0.004" y="1959.176" fill="none" stroke="#D1D3D4" stroke-width="0.2835" stroke-miterlimit="10" width="1700.789" height="28.348"/>
	
		<rect x="0.004" y="2129.256" fill="none" stroke="#D1D3D4" stroke-width="0.2835" stroke-miterlimit="10" width="1700.789" height="28.346"/>
	
		<rect x="0.004" y="2015.869" fill="none" stroke="#D1D3D4" stroke-width="0.2835" stroke-miterlimit="10" width="1700.789" height="28.346"/>
	
		<rect x="0.004" y="2044.215" fill="none" stroke="#D1D3D4" stroke-width="0.2835" stroke-miterlimit="10" width="1700.789" height="28.348"/>
	
		<rect x="0.004" y="2072.562" fill="none" stroke="#D1D3D4" stroke-width="0.2835" stroke-miterlimit="10" width="1700.789" height="28.346"/>
	
		<rect x="0.004" y="2100.908" fill="none" stroke="#D1D3D4" stroke-width="0.2835" stroke-miterlimit="10" width="1700.789" height="28.348"/>
	
		<rect x="0.004" y="2270.988" fill="none" stroke="#D1D3D4" stroke-width="0.2835" stroke-miterlimit="10" width="1700.789" height="28.346"/>
	
		<rect x="0.004" y="2157.602" fill="none" stroke="#D1D3D4" stroke-width="0.2835" stroke-miterlimit="10" width="1700.789" height="28.346"/>
	
		<rect x="0.004" y="2185.947" fill="none" stroke="#D1D3D4" stroke-width="0.2835" stroke-miterlimit="10" width="1700.789" height="28.348"/>
	
		<rect x="0.004" y="2214.295" fill="none" stroke="#D1D3D4" stroke-width="0.2835" stroke-miterlimit="10" width="1700.789" height="28.346"/>
	
		<rect x="0.004" y="2242.641" fill="none" stroke="#D1D3D4" stroke-width="0.2835" stroke-miterlimit="10" width="1700.789" height="28.348"/>
	
		<rect x="113.39" y="31.617" fill="none" stroke="#D1D3D4" stroke-width="0.2835" stroke-miterlimit="10" width="28.347" height="2267.717"/>
	
		<rect x="0.003" y="31.616" fill="none" stroke="#D1D3D4" stroke-width="0.2835" stroke-miterlimit="10" width="28.347" height="2267.716"/>
	
		<rect x="28.35" y="31.617" fill="none" stroke="#D1D3D4" stroke-width="0.2835" stroke-miterlimit="10" width="28.347" height="2267.717"/>
	
		<rect x="56.697" y="31.617" fill="none" stroke="#D1D3D4" stroke-width="0.2835" stroke-miterlimit="10" width="28.347" height="2267.717"/>
	
		<rect x="85.043" y="31.617" fill="none" stroke="#D1D3D4" stroke-width="0.2835" stroke-miterlimit="10" width="28.347" height="2267.717"/>
	
		<rect x="255.124" y="31.617" fill="none" stroke="#D1D3D4" stroke-width="0.2835" stroke-miterlimit="10" width="28.346" height="2267.717"/>
	
		<rect x="141.737" y="31.617" fill="none" stroke="#D1D3D4" stroke-width="0.2835" stroke-miterlimit="10" width="28.346" height="2267.717"/>
	
		<rect x="170.083" y="31.617" fill="none" stroke="#D1D3D4" stroke-width="0.2835" stroke-miterlimit="10" width="28.348" height="2267.717"/>
	
		<rect x="198.43" y="31.617" fill="none" stroke="#D1D3D4" stroke-width="0.2835" stroke-miterlimit="10" width="28.346" height="2267.717"/>
	
		<rect x="226.776" y="31.617" fill="none" stroke="#D1D3D4" stroke-width="0.2835" stroke-miterlimit="10" width="28.348" height="2267.717"/>
	
		<rect x="396.856" y="31.617" fill="none" stroke="#D1D3D4" stroke-width="0.2835" stroke-miterlimit="10" width="28.348" height="2267.717"/>
	
		<rect x="283.469" y="31.617" fill="none" stroke="#D1D3D4" stroke-width="0.2835" stroke-miterlimit="10" width="28.348" height="2267.717"/>
	
		<rect x="311.817" y="31.617" fill="none" stroke="#D1D3D4" stroke-width="0.2835" stroke-miterlimit="10" width="28.346" height="2267.717"/>
	
		<rect x="340.163" y="31.617" fill="none" stroke="#D1D3D4" stroke-width="0.2835" stroke-miterlimit="10" width="28.348" height="2267.717"/>
	
		<rect x="368.51" y="31.617" fill="none" stroke="#D1D3D4" stroke-width="0.2835" stroke-miterlimit="10" width="28.346" height="2267.717"/>
	
		<rect x="538.59" y="31.617" fill="none" stroke="#D1D3D4" stroke-width="0.2835" stroke-miterlimit="10" width="28.346" height="2267.717"/>
	
		<rect x="425.204" y="31.617" fill="none" stroke="#D1D3D4" stroke-width="0.2835" stroke-miterlimit="10" width="28.346" height="2267.717"/>
	
		<rect x="453.549" y="31.617" fill="none" stroke="#D1D3D4" stroke-width="0.2835" stroke-miterlimit="10" width="28.348" height="2267.717"/>
	
		<rect x="481.897" y="31.617" fill="none" stroke="#D1D3D4" stroke-width="0.2835" stroke-miterlimit="10" width="28.346" height="2267.717"/>
	
		<rect x="510.243" y="31.617" fill="none" stroke="#D1D3D4" stroke-width="0.2835" stroke-miterlimit="10" width="28.348" height="2267.717"/>
	
		<rect x="680.323" y="31.617" fill="none" stroke="#D1D3D4" stroke-width="0.2835" stroke-miterlimit="10" width="28.348" height="2267.717"/>
	
		<rect x="566.936" y="31.617" fill="none" stroke="#D1D3D4" stroke-width="0.2835" stroke-miterlimit="10" width="28.348" height="2267.717"/>
	
		<rect x="595.284" y="31.617" fill="none" stroke="#D1D3D4" stroke-width="0.2835" stroke-miterlimit="10" width="28.346" height="2267.717"/>
	
		<rect x="623.629" y="31.617" fill="none" stroke="#D1D3D4" stroke-width="0.2835" stroke-miterlimit="10" width="28.348" height="2267.717"/>
	
		<rect x="651.977" y="31.617" fill="none" stroke="#D1D3D4" stroke-width="0.2835" stroke-miterlimit="10" width="28.346" height="2267.717"/>
	
		<rect x="822.057" y="31.617" fill="none" stroke="#D1D3D4" stroke-width="0.2835" stroke-miterlimit="10" width="28.346" height="2267.717"/>
	
		<rect x="708.67" y="31.617" fill="none" stroke="#D1D3D4" stroke-width="0.2835" stroke-miterlimit="10" width="28.346" height="2267.717"/>
	
		<rect x="737.016" y="31.617" fill="none" stroke="#D1D3D4" stroke-width="0.2835" stroke-miterlimit="10" width="28.348" height="2267.717"/>
	
		<rect x="765.364" y="31.617" fill="none" stroke="#D1D3D4" stroke-width="0.2835" stroke-miterlimit="10" width="28.346" height="2267.717"/>
	
		<rect x="793.709" y="31.617" fill="none" stroke="#D1D3D4" stroke-width="0.2835" stroke-miterlimit="10" width="28.348" height="2267.717"/>
	
		<rect x="963.789" y="31.617" fill="none" stroke="#D1D3D4" stroke-width="0.2835" stroke-miterlimit="10" width="28.348" height="2267.717"/>
	
		<rect x="850.403" y="31.617" fill="none" stroke="#D1D3D4" stroke-width="0.2835" stroke-miterlimit="10" width="28.347" height="2267.717"/>
	
		<rect x="878.75" y="31.617" fill="none" stroke="#D1D3D4" stroke-width="0.2835" stroke-miterlimit="10" width="28.346" height="2267.717"/>
	
		<rect x="907.096" y="31.617" fill="none" stroke="#D1D3D4" stroke-width="0.2835" stroke-miterlimit="10" width="28.348" height="2267.717"/>
	
		<rect x="935.443" y="31.617" fill="none" stroke="#D1D3D4" stroke-width="0.2835" stroke-miterlimit="10" width="28.346" height="2267.717"/>
	
		<rect x="1105.523" y="31.617" fill="none" stroke="#D1D3D4" stroke-width="0.2835" stroke-miterlimit="10" width="28.346" height="2267.717"/>
	
		<rect x="992.137" y="31.617" fill="none" stroke="#D1D3D4" stroke-width="0.2835" stroke-miterlimit="10" width="28.346" height="2267.717"/>
	
		<rect x="1020.482" y="31.617" fill="none" stroke="#D1D3D4" stroke-width="0.2835" stroke-miterlimit="10" width="28.348" height="2267.717"/>
	
		<rect x="1048.83" y="31.617" fill="none" stroke="#D1D3D4" stroke-width="0.2835" stroke-miterlimit="10" width="28.346" height="2267.717"/>
	
		<rect x="1077.176" y="31.617" fill="none" stroke="#D1D3D4" stroke-width="0.2835" stroke-miterlimit="10" width="28.348" height="2267.717"/>
	
		<rect x="1247.25" y="31.617" fill="none" stroke="#D1D3D4" stroke-width="0.2835" stroke-miterlimit="10" width="28.346" height="2267.717"/>
	
		<rect x="1133.863" y="31.617" fill="none" stroke="#D1D3D4" stroke-width="0.2835" stroke-miterlimit="10" width="28.346" height="2267.717"/>
	
		<rect x="1162.209" y="31.617" fill="none" stroke="#D1D3D4" stroke-width="0.2835" stroke-miterlimit="10" width="28.348" height="2267.717"/>
	
		<rect x="1190.557" y="31.617" fill="none" stroke="#D1D3D4" stroke-width="0.2835" stroke-miterlimit="10" width="28.346" height="2267.717"/>
	
		<rect x="1218.902" y="31.617" fill="none" stroke="#D1D3D4" stroke-width="0.2835" stroke-miterlimit="10" width="28.348" height="2267.717"/>
	
		<rect x="1388.982" y="31.617" fill="none" stroke="#D1D3D4" stroke-width="0.2835" stroke-miterlimit="10" width="28.346" height="2267.717"/>
	
		<rect x="1275.596" y="31.617" fill="none" stroke="#D1D3D4" stroke-width="0.2835" stroke-miterlimit="10" width="28.346" height="2267.717"/>
	
		<rect x="1303.941" y="31.617" fill="none" stroke="#D1D3D4" stroke-width="0.2835" stroke-miterlimit="10" width="28.348" height="2267.717"/>
	
		<rect x="1332.289" y="31.617" fill="none" stroke="#D1D3D4" stroke-width="0.2835" stroke-miterlimit="10" width="28.346" height="2267.717"/>
	
		<rect x="1360.635" y="31.617" fill="none" stroke="#D1D3D4" stroke-width="0.2835" stroke-miterlimit="10" width="28.348" height="2267.717"/>
	
		<rect x="1530.717" y="31.617" fill="none" stroke="#D1D3D4" stroke-width="0.2835" stroke-miterlimit="10" width="28.346" height="2267.717"/>
	
		<rect x="1417.33" y="31.617" fill="none" stroke="#D1D3D4" stroke-width="0.2835" stroke-miterlimit="10" width="28.346" height="2267.717"/>
	
		<rect x="1445.676" y="31.617" fill="none" stroke="#D1D3D4" stroke-width="0.2835" stroke-miterlimit="10" width="28.348" height="2267.717"/>
	
		<rect x="1474.023" y="31.617" fill="none" stroke="#D1D3D4" stroke-width="0.2835" stroke-miterlimit="10" width="28.346" height="2267.717"/>
	
		<rect x="1502.369" y="31.617" fill="none" stroke="#D1D3D4" stroke-width="0.2835" stroke-miterlimit="10" width="28.348" height="2267.717"/>
	
		<rect x="1672.449" y="31.617" fill="none" stroke="#D1D3D4" stroke-width="0.2835" stroke-miterlimit="10" width="28.346" height="2267.717"/>
	
		<rect x="1559.062" y="31.617" fill="none" stroke="#D1D3D4" stroke-width="0.2835" stroke-miterlimit="10" width="28.346" height="2267.717"/>
	
		<rect x="1587.408" y="31.617" fill="none" stroke="#D1D3D4" stroke-width="0.2835" stroke-miterlimit="10" width="28.348" height="2267.717"/>
	
		<rect x="1615.756" y="31.617" fill="none" stroke="#D1D3D4" stroke-width="0.2835" stroke-miterlimit="10" width="28.346" height="2267.717"/>
	
		<rect x="1644.102" y="31.617" fill="none" stroke="#D1D3D4" stroke-width="0.2835" stroke-miterlimit="10" width="28.348" height="2267.717"/>
</g>
<line fill="none" stroke="#000000" stroke-width="0.7087" stroke-miterlimit="10" x1="822" y1="2014.928" x2="822" y2="393.792"/>
<line fill="none" stroke="#000000" stroke-width="0.7087" stroke-miterlimit="10" x1="355.025" y1="739.591" x2="1403.638" y2="739.591"/>
<line fill="none" stroke="#000000" stroke-width="0.7087" stroke-miterlimit="10" x1="514.352" y1="1307.375" x2="1243.665" y2="1307.375"/>
<line fill="none" stroke="#000000" stroke-width="0.7087" stroke-miterlimit="10" x1="375.857" y1="812.515" x2="1382.1" y2="812.515"/>
<line fill="none" stroke="#000000" stroke-width="0.7087" stroke-miterlimit="10" x1="621.601" y1="2015.347" x2="1137.339" y2="2015.347"/>
<g>
	<g>
		
			<line fill="none" stroke="#000000" stroke-width="2.8347" stroke-miterlimit="10" x1="714.197" y1="930.491" x2="714.197" y2="1939.038"/>
		<g>
			<path d="M699.935,948.667c0,0.468,0.232,0.926,0.656,1.197c0.659,0.42,1.537,0.226,1.958-0.435l11.648-18.291l11.648,18.291
				c0.421,0.661,1.298,0.855,1.958,0.435c0.659-0.421,0.85-1.303,0.435-1.958l-12.845-20.167c-0.26-0.409-0.711-0.656-1.196-0.656
				s-0.936,0.248-1.196,0.656l-12.845,20.167C700.007,948.142,699.935,948.407,699.935,948.667
				C699.935,949.135,699.935,948.407,699.935,948.667z"/>
		</g>
		<g>
			<path d="M699.935,1920.862c0-0.468,0.232-0.926,0.656-1.197c0.659-0.421,1.537-0.226,1.958,0.435l11.648,18.291l11.648-18.291
				c0.421-0.66,1.298-0.855,1.958-0.435c0.659,0.421,0.85,1.303,0.435,1.957l-12.845,20.168c-0.26,0.408-0.711,0.656-1.196,0.656
				s-0.936-0.248-1.196-0.656l-12.845-20.168C700.007,1921.387,699.935,1921.123,699.935,1920.862
				C699.935,1920.395,699.935,1921.123,699.935,1920.862z"/>
		</g>
	</g>
</g>
<text transform="matrix(0 -1 1 0 699.6182 1363.8984)" font-family="'Calibri'" font-size="28.3465">MRUK10E - MRUSA6E - MREU36E</text>
<text transform="matrix(0 -1 1 0 745.1968 1101.4619)" fill="#9A9899" font-family="'Calibri'" font-size="28.3465">BCSizing ©</text>
<text transform="matrix(0 -1 1 0 699.6182 1890.7793)" font-family="'Calibri'" font-size="28.3465">SLEEVE</text>
<text transform="matrix(0 -1 1 0 740.2183 1891.4941)" font-family="'Calibri'" font-size="28.3465">WOVEN BODICE BLOCK</text>
<text transform="matrix(1 0 0 1 936.0869 1297.4912)" font-family="'Calibri'" font-size="28.3465">ELBOW</text>
<text transform="matrix(1 0 0 1 936.0869 801.4316)" font-family="'Calibri'" font-size="28.3465">BICEP</text>
<path fill="none" stroke="#000000" stroke-width="0.7087" stroke-miterlimit="10" d="M822.037,393.389
	c-195.192,0.224-276.782,284.939-467.498,346.373"/>
<path fill="none" stroke="#000000" stroke-width="0.7087" stroke-miterlimit="10" d="M822.037,393.389
	c210.772,2.362,337.31,310.367,581.601,346.203"/>
<line fill="none" stroke="#000000" stroke-width="0.7087" stroke-miterlimit="10" stroke-dasharray="0.8504" x1="879.122" y1="739.762" x2="879.122" y2="2014.921"/>
<line fill="none" stroke="#000000" stroke-width="0.7087" stroke-miterlimit="10" x1="515.275" y1="1307.375" x2="621.601" y2="2015.347"/>
<line fill="none" stroke="#000000" stroke-width="0.7087" stroke-miterlimit="10" x1="1243.665" y1="1307.375" x2="1137.339" y2="2015.347"/>
<line fill="none" stroke="#000000" stroke-width="0.7087" stroke-miterlimit="10" x1="354.54" y1="739.762" x2="515.275" y2="1307.375"/>
<line fill="none" stroke="#000000" stroke-width="0.7087" stroke-miterlimit="10" x1="1403.219" y1="739.591" x2="1243.665" y2="1307.375"/>
</svg>
